<svg xmlns="http://www.w3.org/2000/svg" xmlns:xlink="http://www.w3.org/1999/xlink" width="160" height="160" viewBox="0 0 160 160"><defs><style>.a{fill:rgba(255,255,255,0.95);}.b{fill:#7f8592;font-size:11px;font-family:SFProText-Regular, SF Pro Text;letter-spacing:0.006em;}.c{fill:#1b2749;}.d{filter:url(#a);}</style><filter id="a" x="0" y="0" width="160" height="160" filterUnits="userSpaceOnUse"><feOffset dy="10" input="SourceAlpha"/><feGaussianBlur stdDeviation="10" result="b"/><feFlood flood-opacity="0.102"/><feComposite operator="in" in2="b"/><feComposite in="SourceGraphic"/></filter></defs><g transform="translate(30 20)"><g class="d" transform="matrix(1, 0, 0, 1, -30, -20)"><rect class="a" width="100" height="100" rx="8" transform="translate(30 20)"/></g><text class="b" transform="translate(49.5 81)"><tspan x="-21.651" y="0">Transfer</tspan></text><g transform="translate(36 21)"><path class="c" d="M10.624,2.533,8.224,0,7.375.9,8.751,2.348H0V3.614H8.751L7.376,5.067l.848.9,2.4-2.533A.658.658,0,0,0,10.624,2.533Z" transform="translate(21.9 14.752)"/><path class="c" d="M4.625,0l-.85.9.776.819H0V2.981H4.551L3.775,3.8l.85.9,1.8-1.9a.659.659,0,0,0,0-.9Z" transform="translate(24.3 24.252)"/><path class="c" d="M3.776,3.8l.848.9,1.8-1.9a.659.659,0,0,0,0-.9L4.624,0,3.776.9l.776.819H0V2.981H4.552Z" transform="translate(24.3 6.519)"/><path class="c" d="M4.2.633H3V0H1.8V.633H.6a.617.617,0,0,0-.6.633V3.8a.617.617,0,0,0,.6.633h3V5.7H1.2V5.093H0v1.24a.617.617,0,0,0,.6.633H1.813V7.6h1.2V6.967H4.2a.617.617,0,0,0,.6-.633V3.8a.617.617,0,0,0-.6-.633h-3V1.9H3.6v.647H4.8V1.267A.617.617,0,0,0,4.2.633Z" transform="translate(9.3 16.467)"/><path class="c" d="M6.6,16.467c-4.071,0-6.6-2.184-6.6-5.7A9.365,9.365,0,0,1,1.184,6.356a7.931,7.931,0,0,1,3.069-3.2L3.621.807A.654.654,0,0,1,3.783.176.583.583,0,0,1,4.2,0a.566.566,0,0,1,.189.032l1.649.58L8.88.013A.579.579,0,0,1,9.441.2a.659.659,0,0,1,.136.6L8.944,3.152a7.929,7.929,0,0,1,3.072,3.2A9.365,9.365,0,0,1,13.2,10.767C13.2,14.283,10.671,16.467,6.6,16.467ZM6.6,3.8c-2.991,0-5.4,3.811-5.4,6.966C1.2,14.88,5.333,15.2,6.6,15.2s5.4-.32,5.4-4.433C12,7.612,9.591,3.8,6.6,3.8Zm0-1.269A4.5,4.5,0,0,1,7.816,2.7l.336-1.244-2.036.429A.591.591,0,0,1,6,1.9a.556.556,0,0,1-.188-.032l-.72-.253L5.379,2.7A4.48,4.48,0,0,1,6.6,2.532Z" transform="translate(5.1 10.766)"/><path class="c" d="M.15.158h1.2V1.425H.15Z" transform="translate(4.95 26.442)"/><path class="c" d="M.15.158h1.2V1.425H.15Z" transform="translate(4.95 9.975)"/><path class="c" d="M.15.158h1.2V1.425H.15Z" transform="translate(16.95 26.442)"/><path class="c" d="M.15.158h1.2V1.425H.15Z" transform="translate(16.95 9.975)"/><path class="c" d="M19.8,38H3a3.11,3.11,0,0,1-3-3.166V3.167A3.11,3.11,0,0,1,3,0H19.8a3.11,3.11,0,0,1,3,3.167V15.834H21.6V5.067H14.771l-.434.916a.593.593,0,0,1-.537.35H9a.593.593,0,0,1-.537-.35l-.434-.916H1.2V32.3H21.6V19.634h1.2v15.2A3.11,3.11,0,0,1,19.8,38ZM1.2,33.566v1.267a1.9,1.9,0,0,0,1.8,1.9H19.8a1.9,1.9,0,0,0,1.8-1.9V33.566ZM3,1.266a1.9,1.9,0,0,0-1.8,1.9V3.8H8.4a.6.6,0,0,1,.54.351l.431.916h4.058l.434-.916A.6.6,0,0,1,14.4,3.8h7.2V3.167a1.9,1.9,0,0,0-1.8-1.9Z" transform="translate(0.3)"/><path class="c" d="M.15.158h1.2V1.425H.15Z" transform="translate(3.75 1.742)"/><path class="c" d="M0,0V1.9a.617.617,0,0,0,.6.633H2.4V1.267H1.2V0Z" transform="translate(2.1 29.133)"/><path class="c" d="M2.4,0H.6A.617.617,0,0,0,0,.633v1.9H1.2V1.267H2.4Z" transform="translate(2.1 5.7)"/><path class="c" d="M1.2,1.267H0V2.533H1.8A.617.617,0,0,0,2.4,1.9V0H1.2Z" transform="translate(18.9 29.133)"/><path class="c" d="M2.4.633A.617.617,0,0,0,1.8,0H0V1.267H1.2V2.533H2.4Z" transform="translate(18.9 5.7)"/></g></g></svg>