<svg xmlns="http://www.w3.org/2000/svg" width="20" height="19.167" viewBox="0 0 20 19.167"><defs><style>.a{fill:#1b2749;}</style></defs><path class="a" d="M9.928,0h-4.4Q5.312,0,5.1.02t-.4.055L4.663.083q-.175.034-.346.081T3.976.271Q3.886.3,3.8.339q-.134.054-.266.117L3.479.481q-.106.052-.21.109-.13.071-.257.151Q2.94.787,2.87.835,2.783.893,2.7.955q-.155.113-.3.238c-.042.036-.084.072-.125.109l-.106.1-.089.086q-.1.1-.205.212-.057.061-.112.125c-.046.053-.092.106-.136.16l0,0c-.049.059-.1.12-.143.182s-.079.105-.117.159-.087.125-.129.189q-.094.142-.181.289-.116.2-.221.4a7.391,7.391,0,0,0-.388.911l-.022.066a7.756,7.756,0,0,0-.225.8A8.146,8.146,0,0,0,0,6.59c0,.058,0,.116,0,.174s0,.116,0,.174A8.127,8.127,0,0,0,.239,8.734q.078.314.18.615l.022.065a7.394,7.394,0,0,0,.388.911q.1.206.221.4.087.148.181.289c.042.064.085.127.129.189s.078.107.117.159.065.085.1.126l.094.115.089.1q.055.063.112.125.1.109.205.212l.089.086.106.1q.062.056.125.109.148.125.3.238c.056.041.113.081.171.12s.095.063.143.093c.084.053.17.1.257.151q.1.057.21.109l.053.025q.131.063.266.117.089.036.179.068.168.06.341.108t.346.081l.042.008q.2.036.4.055t.425.02a1.644,1.644,0,0,0,1.454-1.78,1.644,1.644,0,0,0-1.454-1.78,2.237,2.237,0,0,1-1.245-.386l-.031-.022a2.766,2.766,0,0,1-.575-.532,3.168,3.168,0,0,1-.325-.485,3.8,3.8,0,0,1,0-3.56A2.534,2.534,0,0,1,5.526,3.56h4.4a2.959,2.959,0,0,1,2.618,3.2,3.6,3.6,0,0,1-.725,2.21,9.8,9.8,0,0,1,.4,2.774,10.033,10.033,0,0,1-.073,1.213,6.96,6.96,0,0,0,3.312-6.2C15.455,3.035,12.975,0,9.928,0Z" transform="translate(4.545)"/><path class="a" d="M15.216,4.8q-.078-.314-.18-.614c-.025-.073-.05-.145-.077-.216s-.052-.136-.08-.2-.056-.136-.086-.2q-.072-.163-.151-.32-.125-.249-.266-.484l-.064-.1a6.5,6.5,0,0,0-.657-.876l-.036-.039a5.935,5.935,0,0,0-.436-.434q-.062-.055-.125-.109a5.422,5.422,0,0,0-.616-.452L12.305.658q-.162-.095-.33-.177L11.923.456q-.142-.067-.287-.125L11.5.279Q11.311.21,11.116.158q-.15-.04-.3-.07L10.735.072c-.126-.023-.253-.04-.382-.052S10.071,0,9.928,0A1.644,1.644,0,0,0,8.474,1.78,1.644,1.644,0,0,0,9.928,3.56a2.164,2.164,0,0,1,.574.079,2.253,2.253,0,0,1,.283.1l.088.04a2.684,2.684,0,0,1,.987.828l.017.023q.066.09.126.187l.051.084c.017.028.033.056.049.085a3.709,3.709,0,0,1,.442,1.78,2.959,2.959,0,0,1-2.618,3.2h-4.4a2.959,2.959,0,0,1-2.618-3.2,3.6,3.6,0,0,1,.725-2.21,9.806,9.806,0,0,1-.4-2.774A10.032,10.032,0,0,1,3.312.568,6.96,6.96,0,0,0,0,6.765c0,3.73,2.479,6.765,5.526,6.765h4.4q.214,0,.425-.02c.129-.012.256-.03.382-.053l.079-.015c.1-.02.2-.044.3-.07q.194-.052.383-.121l.136-.052q.145-.058.287-.125l.053-.025q.168-.082.33-.177c.046-.027.092-.054.137-.083a5.423,5.423,0,0,0,.616-.452q.063-.053.125-.109a5.965,5.965,0,0,0,.437-.434l.036-.039q.089-.1.174-.2l0-.005a6.59,6.59,0,0,0,.478-.667l.064-.1q.141-.234.266-.484.079-.157.151-.32c.03-.067.058-.135.086-.2s.054-.135.08-.2.052-.143.077-.216a7.811,7.811,0,0,0,.225-.8,8.157,8.157,0,0,0,.193-1.607q0-.087,0-.174c0-.058,0-.116,0-.174a8.121,8.121,0,0,0-.237-1.8Z" transform="translate(0 5.637)"/></svg>