<svg xmlns="http://www.w3.org/2000/svg" width="102.017" height="60.287" viewBox="0 0 102.017 60.287"><defs><style>.a{fill:#fff;}.b{fill:none;stroke:#fff;stroke-miterlimit:10;}</style></defs><g transform="translate(0.508 0.048)"><path class="a" d="M15.667,40.239S18.8,8.909,31.334,4.15v.041C17.873-4.935,0,3.686,0,3.686,12.534,8.445,15.667,40.239,15.667,40.239Z" transform="translate(35 20)"/><g transform="translate(101) rotate(180)"><path class="a" d="M-44.576,45.434S3.808,40.974-14.032,0c0,0,10.93,22.934,6.749,29.9s8.083-8.92,5.3-16.445c0,0,4.179,3.623.417,17,0,0-5.343,13.707-15.468,14.974" transform="translate(0 -4) rotate(180)"/><path class="b" d="M-44.576,49.282S3.029,40.974-14.811,0c0,0,11.708,26.782,7.527,33.751s8.083-8.92,5.3-16.445c0,0,4.179,3.623.417,17,0,0-5.343,13.707-15.468,14.974" transform="translate(0 -0.152) rotate(180)"/></g><path class="a" d="M44.576,45.434S-3.808,40.974,14.032,0c0,0-10.93,22.934-6.749,29.9s-8.083-8.92-5.3-16.445c0,0-4.179,3.623-.417,17,0,0,5.343,13.707,15.468,14.974" transform="translate(0 4)"/><path class="b" d="M44.576,49.282S-3.029,40.974,14.811,0c0,0-11.708,26.782-7.527,33.751s-8.083-8.92-5.3-16.445c0,0-4.179,3.623-.417,17,0,0,5.343,13.707,15.468,14.974" transform="translate(0 0.152)"/></g></svg>