<svg xmlns="http://www.w3.org/2000/svg" width="20" height="20" viewBox="0 0 20 20"><defs><style>.a{fill:rgba(0,0,0,0);}.b{fill:#1b2749;}</style></defs><rect class="a" width="20" height="20"/><g transform="translate(2.5 0)"><path class="b" d="M13.936,20H1.064A1.262,1.262,0,0,1,0,18.61V9.462A1.258,1.258,0,0,1,1.064,8.077h.38V6.253A6.156,6.156,0,0,1,7.321,0h.357a6.156,6.156,0,0,1,5.877,6.251V8.077h.38A1.258,1.258,0,0,1,15,9.462V18.61A1.262,1.262,0,0,1,13.936,20ZM7.5,11.176c-.084,0-.153,0-.179,0a1.636,1.636,0,0,0-1.5,1.665,1.663,1.663,0,0,0,.474,1.183v2.764a.584.584,0,0,0,.568.584H8.138a.584.584,0,0,0,.568-.584V14.026a1.662,1.662,0,0,0,.474-1.183,1.636,1.636,0,0,0-1.5-1.665C7.653,11.178,7.584,11.176,7.5,11.176Zm0-8.594A3.616,3.616,0,0,0,3.951,6.253V8.077h7.1V6.253A3.616,3.616,0,0,0,7.5,2.581Z"/></g></svg>