<svg xmlns="http://www.w3.org/2000/svg" xmlns:xlink="http://www.w3.org/1999/xlink" width="252" height="252" viewBox="0 0 252 252"><defs><style>.a{fill:none;}.b{fill:rgba(0,0,0,0);}.c{opacity:0.079;}.d,.e{fill:#fa7268;}.e{opacity:0.299;}.f,.i{fill:#1b2749;}.f{opacity:0.158;}.g{clip-path:url(#a);}.h{fill:#dbd4da;}.j{fill:#3f3d56;}.k{clip-path:url(#b);}.l{fill:#b8e986;}.m{fill:#ffd816;}.n{fill:#ffcd00;}.o{fill:#fdbe11;}.p{fill:#ffdc53;}.q{fill:#e79b24;}.r{clip-path:url(#c);}.s{fill:#edd2bd;}.t{fill:#32454b;}.u{fill:#4c4c4c;}.v{fill:#f6c5b0;}.w{fill:#fff;}.x{fill:#f2f2f2;}.y{fill:#d5ab8d;}.z{fill:#7ed321;}</style><clipPath id="a"><path class="a" d="M0,0H34.61V7.481H0Z"/></clipPath><clipPath id="b"><path class="a" d="M0,0H19.731V44.081H0Z"/></clipPath><clipPath id="c"><path class="a" d="M0,0H31V31.547H0Z"/></clipPath></defs><rect class="b" width="252" height="252"/><g class="c" transform="translate(0.622 27.859)"><path class="d" d="M146.057,32.781c-16.116-.66-31.465-6.808-46.122-13.537S70.759,5.067,55.042,1.5C44.924-.79,33.355-1.116,25.2,5.294c-7.856,6.181-10.391,16.819-11.746,26.7-1.026,7.435-1.629,15.26,1.18,22.219,1.95,4.833,5.414,8.893,7.809,13.52,8.334,16.1,2.443,35.963-6.589,51.686-4.233,7.375-9.149,14.411-12.418,22.262s-4.788,16.849-1.935,24.86c2.834,7.945,9.589,13.9,16.908,18.082,14.863,8.518,32.371,10.959,49.456,12.328,37.8,3.057,75.814,1.734,113.72.408,14.027-.49,28.118-.989,41.918-3.562,7.665-1.425,15.576-3.685,21.139-9.139a23.576,23.576,0,0,0,4.081-27.331c-7.938-14.564-29.881-18.183-35.437-33.813-3.053-8.6.082-18.186,4.522-26.164,9.52-17.117,25.481-32.133,26.32-51.7A36.814,36.814,0,0,0,225.175,12.4C212.739,5.733,195.5,6.571,186.329,17.6c-9.442,11.405-26.044,15.764-40.272,15.178"/></g><path class="e" d="M0,11.608l43.347-.124L32.29,9.413S32.741-1.977,27.325.3A8.82,8.82,0,0,0,21.684,7.55s-2.031-4.556-4.965-2.9a11.347,11.347,0,0,0-4.288,4.556S11.378,5.928,9.5,5.742C7.89,5.583,4.831,8.7,3.228,10.455Z" transform="translate(183.556 86.744)"/><path class="e" d="M0,12.889l43.347-.138-11.057-2.3S32.741-2.195,27.325.334a9.861,9.861,0,0,0-5.641,8.048s-2.031-5.059-4.965-3.219a12.293,12.293,0,0,0-4.287,5.059S11.378,6.582,9.5,6.376C7.89,6.2,4.831,9.661,3.228,11.609Z" transform="translate(107.202 38.494)"/><path class="e" d="M0,15.625l52.546-.167-13.4-2.787S39.69-2.661,33.124.405a11.953,11.953,0,0,0-6.839,9.756s-2.462-6.133-6.018-3.9a14.9,14.9,0,0,0-5.2,6.133s-1.276-4.412-3.556-4.662c-1.949-.214-5.657,3.983-7.6,6.343Z" transform="translate(33.206 74.184)"/><path class="f" d="M52.572,1.961C52.572.878,40.8,0,26.286,0S0,.878,0,1.961,11.769,3.923,26.286,3.923s26.286-.878,26.286-1.962" transform="translate(35.467 192.482)"/><path class="f" d="M52.572,1.961C52.572.878,40.8,0,26.286,0S0,.878,0,1.961,11.769,3.923,26.286,3.923s26.286-.878,26.286-1.962" transform="translate(157.422 195.015)"/><g transform="translate(197.301 147.643)"><g transform="translate(0 56.353)"><path class="a" d="M0,0H34.61V7.481H0Z" transform="translate(0 0)"/><g class="g" transform="translate(0 0)"><path class="h" d="M17.305,0C26.862,0,34.61,1.674,34.61,3.741S26.862,7.481,17.305,7.481,0,5.806,0,3.741,7.748,0,17.305,0"/></g></g><path class="i" d="M1.867,0C2.9,0,3.733,1.276,3.733,2.85S2.9,5.7,1.867,5.7,0,4.423,0,2.85.836,0,1.867,0" transform="translate(14.933 55.603)"/><path class="i" d="M1.867,0C2.9,0,3.733,1.275,3.733,2.849S2.9,5.7,1.867,5.7,0,4.423,0,2.849.836,0,1.867,0" transform="translate(14.933 53.071)"/><path class="i" d="M1.867,0C2.9,0,3.733,1.276,3.733,2.85S2.9,5.7,1.867,5.7,0,4.423,0,2.85.836,0,1.867,0" transform="translate(14.933 49.272)"/><path class="i" d="M1.867,0C2.9,0,3.733,1.275,3.733,2.849S2.9,5.7,1.867,5.7,0,4.423,0,2.849.836,0,1.867,0" transform="translate(14.933 46.106)"/><path class="i" d="M1.867,0C2.9,0,3.733,1.276,3.733,2.849S2.9,5.7,1.867,5.7,0,4.423,0,2.849.836,0,1.867,0" transform="translate(14.933 42.94)"/><path class="j" d="M1.867,0C2.9,0,3.733,1.275,3.733,2.849S2.9,5.7,1.867,5.7,0,4.423,0,2.849.836,0,1.867,0" transform="translate(14.933 38.508)"/><path class="j" d="M1.867,0C2.9,0,3.733,1.276,3.733,2.849S2.9,5.7,1.867,5.7,0,4.423,0,2.849.836,0,1.867,0" transform="translate(14.933 36.608)"/><g transform="translate(6.866 0)"><path class="a" d="M0,0H19.731V44.081H0Z" transform="translate(0)"/><g class="k" transform="translate(0)"><path class="l" d="M17.615,15.952a9.674,9.674,0,0,0,.767-1.128l-5.405-.886,5.841.042a9.854,9.854,0,0,0,.188-7.8l-7.842,4.066L18.4,4.935A9.854,9.854,0,1,0,2.121,15.958,9.946,9.946,0,0,0,1,17.754L8.015,21.4.539,18.888a9.851,9.851,0,0,0,1.593,9.249,9.853,9.853,0,1,0,15.488,0,9.841,9.841,0,0,0,0-12.179Z" transform="translate(0 0)"/></g></g><path class="l" d="M0,.149A10.416,10.416,0,0,0,2.066,6.407,10.468,10.468,0,0,0,3.68,20.625,9.339,9.339,0,0,0,17.223,18.93a10.525,10.525,0,0,0,0-12.524C18.517,4.686,0-.988,0,.149" transform="translate(8.089 21.412)"/></g><g transform="translate(89.232 67.17)"><path class="m" d="M4.818,4.407a15.161,15.161,0,0,1,21.914.566,16.366,16.366,0,0,1-.548,22.62,15.162,15.162,0,0,1-21.914-.566,16.366,16.366,0,0,1,.549-22.62" transform="translate(0 0)"/><path class="n" d="M4.089,3.74a12.867,12.867,0,0,1,18.6.481,13.89,13.89,0,0,1-.466,19.2,12.867,12.867,0,0,1-18.6-.481,13.89,13.89,0,0,1,.466-19.2" transform="translate(2.345 2.421)"/><path class="o" d="M26.023.421A13.619,13.619,0,0,1,22.315,7.01a12.867,12.867,0,0,1-18.6-.481A13.665,13.665,0,0,1,.381,0,13.875,13.875,0,0,0,3.623,12.609a12.867,12.867,0,0,0,18.6.481A13.85,13.85,0,0,0,26.023.421" transform="translate(2.357 12.739)"/><path class="p" d="M3.13,4.866a11.359,11.359,0,0,1,16.418.424A12.221,12.221,0,0,1,22.607,15.4a12.261,12.261,0,0,0-2.72-11.675A11.358,11.358,0,0,0,3.47,3.3,12.064,12.064,0,0,0,0,10.138,12,12,0,0,1,3.13,4.866" transform="translate(4.02 3.874)"/><path class="q" d="M13.336,1.119,12.122,2.311a3.714,3.714,0,0,1,.654,1.709A5.431,5.431,0,0,1,12.5,6.036l-1.824-.584a2.36,2.36,0,0,0-.364-2.444A1.78,1.78,0,0,0,9.126,2.39a1.4,1.4,0,0,0-1.147.42,1.432,1.432,0,0,0-.454,1.018,6.174,6.174,0,0,0,.421,1.852A16.874,16.874,0,0,1,8.483,7.59,4.863,4.863,0,0,1,8.6,8.919a3.745,3.745,0,0,1-1.162,2.517,3.985,3.985,0,0,1-2.46,1.172,4.117,4.117,0,0,1-2.669-.668L1.031,13.2,0,12.081l1.245-1.223A4.793,4.793,0,0,1,.32,8.125,5.8,5.8,0,0,1,1.394,5.218L2.976,6.345a4.638,4.638,0,0,0-.7,2.023A2.312,2.312,0,0,0,2.962,9.9a2.157,2.157,0,0,0,1.524.745,2.015,2.015,0,0,0,1.552-.634,1.9,1.9,0,0,0,.626-1.357,5.142,5.142,0,0,0-.133-.984A14.2,14.2,0,0,0,6.112,6.2,6.782,6.782,0,0,1,5.6,3.6,3.389,3.389,0,0,1,6.646,1.39,3.265,3.265,0,0,1,7.612.722,3.049,3.049,0,0,1,8.7.463,3.426,3.426,0,0,1,9.876.618a4.877,4.877,0,0,1,1.214.574L12.3,0Z" transform="translate(9.066 9.653)"/></g><g transform="translate(100.917 61.481)"><g transform="translate(0 0)"><path class="a" d="M0,0H31V31.547H0Z"/><g class="r"><path class="m" d="M3.836,5.386A15.315,15.315,0,0,1,25.709,3.9a15.967,15.967,0,0,1,1.457,22.258A15.315,15.315,0,0,1,5.293,27.644,15.967,15.967,0,0,1,3.836,5.386" transform="translate(0 0)"/></g></g><path class="n" d="M3.255,4.571A13,13,0,0,1,21.819,3.313,13.551,13.551,0,0,1,23.055,22.2,13,13,0,0,1,4.492,23.461,13.551,13.551,0,0,1,3.255,4.571" transform="translate(2.345 2.387)"/><path class="o" d="M25.719,0A13.429,13.429,0,0,1,22.61,6.813,13,13,0,0,1,4.047,8.072a13.347,13.347,0,0,1-3.9-6.1A13.508,13.508,0,0,0,4.492,14.048,13,13,0,0,0,23.055,12.79,13.556,13.556,0,0,0,25.719,0" transform="translate(2.356 11.787)"/><path class="p" d="M2.65,5.6A11.473,11.473,0,0,1,19.037,4.492a11.9,11.9,0,0,1,3.942,9.64A11.935,11.935,0,0,0,19.236,2.924,11.473,11.473,0,0,0,2.85,4.035,11.874,11.874,0,0,0,0,11.069,11.844,11.844,0,0,1,2.65,5.6" transform="translate(3.892 3.821)"/><path class="q" d="M12.348,1l-1.1,1.283a3.613,3.613,0,0,1,.8,1.617,5.287,5.287,0,0,1-.1,2L10.08,5.5A2.3,2.3,0,0,0,9.5,3.138a1.785,1.785,0,0,0-1.232-.5,1.421,1.421,0,0,0-1.105.519A1.407,1.407,0,0,0,6.8,4.2a5.989,5.989,0,0,0,.583,1.779,16.378,16.378,0,0,1,.7,1.824A4.716,4.716,0,0,1,8.328,9.1a3.681,3.681,0,0,1-.934,2.579,4.023,4.023,0,0,1-2.346,1.38,4.155,4.155,0,0,1-2.717-.408L1.165,14.007.039,13l1.132-1.316a4.667,4.667,0,0,1-1.164-2.6A5.685,5.685,0,0,1,.82,6.138L2.494,7.1A4.541,4.541,0,0,0,1.98,9.148,2.257,2.257,0,0,0,2.8,10.591a2.161,2.161,0,0,0,1.584.589,2.037,2.037,0,0,0,1.489-.767,1.872,1.872,0,0,0,.5-1.391,4.979,4.979,0,0,0-.22-.953A13.775,13.775,0,0,0,5.6,6.664a6.591,6.591,0,0,1-.74-2.509A3.332,3.332,0,0,1,5.71,1.891a3.281,3.281,0,0,1,.9-.746A3.1,3.1,0,0,1,7.674.789,3.475,3.475,0,0,1,8.859.832a4.89,4.89,0,0,1,1.259.451L11.222,0Z" transform="translate(9.561 8.996)"/></g><g transform="translate(119.232 63.95)"><path class="m" d="M4.818,4.344A15.312,15.312,0,0,1,26.732,4.9a15.97,15.97,0,0,1-.549,22.3,15.312,15.312,0,0,1-21.914-.558,15.97,15.97,0,0,1,.549-22.3" transform="translate(0 0)"/><path class="n" d="M4.089,3.687a13,13,0,0,1,18.6.474,13.553,13.553,0,0,1-.465,18.925,13,13,0,0,1-18.6-.474A13.553,13.553,0,0,1,4.089,3.687" transform="translate(2.346 2.387)"/><path class="o" d="M26.023.415a13.376,13.376,0,0,1-3.708,6.5,13,13,0,0,1-18.6-.474A13.4,13.4,0,0,1,.381,0,13.541,13.541,0,0,0,3.623,12.43a13,13,0,0,0,18.6.474A13.528,13.528,0,0,0,26.023.415" transform="translate(2.357 12.558)"/><path class="p" d="M3.13,4.8a11.472,11.472,0,0,1,16.418.418,11.933,11.933,0,0,1,3.059,9.967,11.962,11.962,0,0,0-2.72-11.509A11.471,11.471,0,0,0,3.47,3.255,11.833,11.833,0,0,0,0,9.994,11.8,11.8,0,0,1,3.13,4.8" transform="translate(4.02 3.82)"/><path class="q" d="M13.336,1.1,12.122,2.279a3.63,3.63,0,0,1,.654,1.685A5.284,5.284,0,0,1,12.5,5.95l-1.824-.576a2.3,2.3,0,0,0-.364-2.41,1.789,1.789,0,0,0-1.183-.609,1.416,1.416,0,0,0-1.147.414,1.4,1.4,0,0,0-.454,1A6,6,0,0,0,7.945,5.6a16.418,16.418,0,0,1,.537,1.882A4.716,4.716,0,0,1,8.6,8.793a3.669,3.669,0,0,1-1.162,2.482,4.008,4.008,0,0,1-2.46,1.156,4.163,4.163,0,0,1-2.669-.659L1.031,13.013,0,11.909,1.245,10.7A4.68,4.68,0,0,1,.32,8.009,5.67,5.67,0,0,1,1.394,5.144L2.976,6.255a4.533,4.533,0,0,0-.7,1.995,2.266,2.266,0,0,0,.682,1.513,2.169,2.169,0,0,0,1.524.734,2.031,2.031,0,0,0,1.552-.625,1.867,1.867,0,0,0,.625-1.338,4.988,4.988,0,0,0-.133-.97,13.845,13.845,0,0,0-.418-1.451A6.6,6.6,0,0,1,5.6,3.547,3.322,3.322,0,0,1,6.646,1.37,3.258,3.258,0,0,1,7.612.711,3.085,3.085,0,0,1,8.7.456,3.472,3.472,0,0,1,9.876.609a4.913,4.913,0,0,1,1.214.566L12.3,0Z" transform="translate(9.066 9.516)"/></g><path class="s" d="M6.857.108A1.037,1.037,0,0,0,6.672.034c-.6-.17-1,.352-1.549.372-.243.009-.817-.5-.95-.069-.048.16-.251.684-.425,1.223-.277.36-.541.735-.847,1.063C2.126,3.455-.374,4.175.047,5.766a2.92,2.92,0,0,0,.337.88,2.172,2.172,0,0,0,.522.514c.15.113.365.334.537.295s.479-.446.625-.582L3.326,5.7c.411-.382.926-.789,1.429-.594a2.379,2.379,0,0,0,.326.138.811.811,0,0,0,.389-.038,5.776,5.776,0,0,0,1.364-.555c.766-.448.923-1.97,1.065-2.815A1.629,1.629,0,0,0,7.916,1.2,1.494,1.494,0,0,0,7.321.433,2.691,2.691,0,0,0,6.857.108" transform="translate(93.461 101.198)"/><path class="t" d="M21.8,10.509a7.812,7.812,0,0,0,2.114-.029A7.017,7.017,0,0,0,25.506,9.9a33.723,33.723,0,0,0,8.7-5.88A12.716,12.716,0,0,0,31.31,0a53.694,53.694,0,0,1-7.815,3.669,6.464,6.464,0,0,1-1.7.455A6.874,6.874,0,0,1,19.3,3.715L9.845.932A13.644,13.644,0,0,0,4.009.107C-1.421.939-1.184,8,3.806,9.18c5.6,1.325,12.245.887,18,1.33" transform="translate(62.92 103.684)"/><path class="s" d="M0,3.642A14.719,14.719,0,0,0,1.32,4.973,28.939,28.939,0,0,0,6.108.7C4.868.485,4.675-.614,3.178.471,2.693.823.831,3.15,0,3.642" transform="translate(35.432 180.758)"/><path class="u" d="M4.376,1.744a1.121,1.121,0,0,1,.3,1,3.06,3.06,0,0,0-.058.681,1.661,1.661,0,0,0,.265.6c.652,1.063,2.4,3.29-.021,3.435-2.2.132-3.851-3.261-4.748-5.272A.8.8,0,0,1,0,1.77a1.069,1.069,0,0,1,.178-.444C.68.558,1.288-.424,2.211.2c.394.265.426.8.845,1.082.343.228,1.012.179,1.321.465" transform="translate(33.6 183.245)"/><path class="i" d="M10.738,11.619c-.481,4.252,5.744,8.7,4.487,12.121C12.6,30.9,7.232,36.922,2.811,42.474c-.316.4-2.363,2.6-2.811,3.1A24.124,24.124,0,0,0,3.609,49.1c6.319-4.892,17.659-13.951,20.7-18.117,4.132-5.655,5.005-16.268,6.986-23.6.328-1.214.821-2.963.07-4.121a4.138,4.138,0,0,0-2.523-1.633C25.922.766,21.955-1,19.083.737c-3.139,1.9-7.976,7.615-8.345,10.882" transform="translate(36.043 136.627)"/><path class="s" d="M0,7.307a20.5,20.5,0,0,0,2.047.152A36.022,36.022,0,0,0,3.054,0C1.858.816.952.05.493,2.149.344,2.828.378,6.244,0,7.307" transform="translate(76.358 179.515)"/><path class="u" d="M3.53,0a1.038,1.038,0,0,1,.841.51,4.6,4.6,0,0,0,.349.528,1.166,1.166,0,0,0,.556.237c1.151.28,3.839.68,2.085,2.356-1.593,1.522-4.9.276-6.811-.511a.74.74,0,0,1-.347-.209.91.91,0,0,1-.137-.421C-.034,1.651-.173.538.9.36c.459-.076.844.273,1.336.187C2.643.476,3.12,0,3.53,0" transform="translate(75.747 185.731)"/><path class="i" d="M8.424,17.569c3.074,3.05,11.872,5.29,13.3,8.8.574,1.408,2,12.2,2.288,19.537.021.524-.5,3.549-.5,4.242,1.639.467,3.669-.056,5.436.067,1.291-8.451,2.813-24.861,2.813-24.861C30.014,17.964,21.575,9.488,16.891,2.829c-.776-1.1-1.683-2.613-3.075-2.8a4.064,4.064,0,0,0-2.871.853C8.376,2.544.61,5.194.041,8.5c-.622,3.616,6.022,6.724,8.384,9.068" transform="translate(51.925 134.762)"/><path class="d" d="M16.886,3.51c-2.654,2.413-6.651,4.62-8.245,7.978A87.482,87.482,0,0,0,1.227,37.247L.159,45.068c-.35,2.565-.263,3.16,1.766,3.348,4.1.388,8.54-1,12.479-2.1A9.827,9.827,0,0,0,17.3,45.153c1.319-.882,2.248-2.361,3.7-2.984a7.332,7.332,0,0,1,2.177-.447c1.581-.16,3.351-.264,4.573.785.715.615,1.075,1.589,1.8,2.165.508-.719-.2-2.956-.321-3.851a35.636,35.636,0,0,1-.384-4.14,79.993,79.993,0,0,1,.353-8.439c.417-4.893.634-9.81,1.023-14.691.279-3.5.981-6.234-1.323-9.188C27.642,2.755,25.343-.037,23.263,0c-2.207.04-4.81,2.085-6.377,3.509" transform="translate(43.984 101.819)"/><path class="v" d="M7.408,9.514a19.638,19.638,0,0,1-2.569,1.8A5.912,5.912,0,0,0,3.023,13.4a1.358,1.358,0,0,1-1.638.839c-1.571-.4-.649-1.473-.625-2.522A18.277,18.277,0,0,0,.085,8.193C-.51,4.826,2.07-.281,5.972.012,10.238.332,9.7,7.3,7.408,9.514" transform="translate(65.974 90.631)"/><path class="i" d="M6.656,10.806a1.166,1.166,0,0,0-.446,1.424c.133.259.379.439.531.687.447.727-.073,1.694-.728,2.229A7.436,7.436,0,0,0,4.1,16.782,10.8,10.8,0,0,1,.01,9.3,7.5,7.5,0,0,1,2.258,3.521c1.8-1.688,3.631-1.6,5.98-1.8a8,8,0,0,1,2.676.063c.8.2,1.391.793,2.137,1.055a4.822,4.822,0,0,0,4.26-.951c.591-.571.939-1.441,1.684-1.77a1.715,1.715,0,0,1,2.05.711,2.506,2.506,0,0,1,.1,2.313c-.21.478-.541.892-.741,1.375-.421,1.016-.223,2.232-.71,3.217a4.4,4.4,0,0,1-2.739,1.929A6.6,6.6,0,0,0,13.8,11.305a2.645,2.645,0,0,0-1.479-2.171c-.838-.185-2.165.794-3.024,1a8.37,8.37,0,0,0-2.638.668" transform="translate(61.698 84.415)"/><path class="i" d="M34.146,57.806H1.282A1.3,1.3,0,0,1,0,56.492V1.314A1.3,1.3,0,0,1,1.282,0H34.146a1.3,1.3,0,0,1,1.282,1.314V56.492a1.3,1.3,0,0,1-1.282,1.314" transform="translate(70.25 103.684)"/><path class="w" d="M0,49.1H31.763V0H0Z" transform="translate(71.471 106.792)"/><path class="w" d="M0,.622H3.665V0H0Z" transform="translate(85.52 157.76)"/><path class="m" d="M.577,11.59a15.54,15.54,0,0,1,19.185-11A15.883,15.883,0,0,1,30.575,20.11a15.54,15.54,0,0,1-19.185,11A15.883,15.883,0,0,1,.577,11.59" transform="translate(81.244 106.792)"/><path class="n" d="M.475,9.545A12.8,12.8,0,0,1,16.275.484a13.08,13.08,0,0,1,8.9,16.077,12.8,12.8,0,0,1-15.8,9.061A13.08,13.08,0,0,1,.475,9.545" transform="translate(83.688 109.899)"/><path class="o" d="M21.624,0a13.764,13.764,0,0,1,.086,7.471A12.745,12.745,0,0,1,5.942,16.717,12.666,12.666,0,0,1,0,12.95a13.043,13.043,0,0,0,8.8,8.933A12.745,12.745,0,0,0,24.57,12.637,13.693,13.693,0,0,0,21.624,0" transform="translate(83.077 113.629)"/><path class="p" d="M.929,10.484A11.74,11.74,0,0,1,15.45,2,11.924,11.924,0,0,1,23.211,9.2,12.018,12.018,0,0,0,14.957.453,11.74,11.74,0,0,0,.437,8.932a12.568,12.568,0,0,0,.422,7.85,12.578,12.578,0,0,1,.071-6.3" transform="translate(84.909 111.143)"/><path class="q" d="M8.082.418,7.64,2.094A3.5,3.5,0,0,1,9.025,3.222a5.469,5.469,0,0,1,.748,1.889L7.95,5.578a2.284,2.284,0,0,0-1.5-1.917,1.68,1.68,0,0,0-1.3.1,1.469,1.469,0,0,0-.763.973A1.493,1.493,0,0,0,4.5,5.852,5.926,5.926,0,0,0,5.762,7.228,16.036,16.036,0,0,1,7.146,8.591,4.733,4.733,0,0,1,7.9,9.674a3.91,3.91,0,0,1,.248,2.793,4.207,4.207,0,0,1-1.5,2.322,3.993,3.993,0,0,1-2.577.844L3.6,17.4l-1.416-.418.454-1.719A4.545,4.545,0,0,1,.523,13.4a6.007,6.007,0,0,1-.512-3.083l1.883.132a4.793,4.793,0,0,0,.4,2.119,2.174,2.174,0,0,0,1.324.962,2.042,2.042,0,0,0,1.649-.168,2.115,2.115,0,0,0,1-1.374,1.99,1.99,0,0,0-.134-1.506A5,5,0,0,0,5.54,9.7,13.545,13.545,0,0,0,4.47,8.654a6.532,6.532,0,0,1-1.7-1.977,3.543,3.543,0,0,1-.2-2.464,3.481,3.481,0,0,1,.489-1.091,3.162,3.162,0,0,1,.792-.8,3.382,3.382,0,0,1,1.067-.492,4.607,4.607,0,0,1,1.3-.15L6.667,0Z" transform="translate(91.628 114.25)"/><path class="s" d="M7.261,6.846a1.2,1.2,0,0,0,.054-.2c.111-.639-.406-1.03-.468-1.6-.027-.255.4-.893-.011-1-.153-.039-.655-.216-1.17-.362-.356-.267-.725-.518-1.054-.818C3.778,2.1,2.913-.476,1.467.077A2.535,2.535,0,0,0,.676.492a2.179,2.179,0,0,0-.436.585c-.093.166-.281.407-.232.585s.452.473.59.618l1.185,1.24c.387.406.806.919.664,1.461a2.7,2.7,0,0,0-.1.352.958.958,0,0,0,.066.406,6.578,6.578,0,0,0,.623,1.4c.476.775,1.9.834,2.7.926a1.348,1.348,0,0,0,.593-.026,1.429,1.429,0,0,0,.668-.678,2.859,2.859,0,0,0,.266-.51" transform="translate(67.195 134.762)"/><path class="x" d="M1.125,3.729a.3.3,0,0,0,.164-.077A10.95,10.95,0,0,0,3.665,1.189L2.722.075a.219.219,0,0,0-.08-.069C2.574-.019,2.5.035,2.45.085L.641,1.741c-.27.247-.755.58-.617,1.017a2.761,2.761,0,0,0,1.1.972" transform="translate(67.806 135.384)"/><path class="d" d="M.391,22.826a8.9,8.9,0,0,0,.175,2.166,7.658,7.658,0,0,0,.643,1.586A32.266,32.266,0,0,0,7,34.808a12.946,12.946,0,0,0,3.386-3.6A48.8,48.8,0,0,1,6.82,24.048a7.168,7.168,0,0,1-.538-1.708,7.831,7.831,0,0,1,.2-2.587L8.39,9.842a15.534,15.534,0,0,0,.353-6.048C7.6-1.712,1.1-.939.36,4.267-.471,10.113.4,16.893.391,22.826" transform="translate(58.644 103.684)"/><path class="x" d="M.487.048A.316.316,0,0,0,0,.279.32.32,0,0,0,.313.621.326.326,0,0,0,.5.054L.487.048" transform="translate(69.028 134.762)"/><path class="x" d="M.487.048A.317.317,0,0,0,0,.279.32.32,0,0,0,.313.621.326.326,0,0,0,.5.054L.487.048" transform="translate(68.417 133.519)"/><path class="y" d="M.22,2.691c.049-.1.1-.2.148-.278A7.209,7.209,0,0,1,1.608.835.882.882,0,0,1,1.9.627.971.971,0,0,1,2.2.583,19,19,0,0,0,5.211.148C5.973,0,7.161-.227,7.622.583a2.111,2.111,0,0,1,.311.762A1.731,1.731,0,0,1,7.853,2c-.046.168-.072.444-.237.532a3.181,3.181,0,0,1-.888.049l-1.784.1c-.583.032-1.267.117-1.542.565a2.341,2.341,0,0,1-.171.3.993.993,0,0,1-.338.23,7.42,7.42,0,0,1-1.464.547C.965,4.435.7,4.2.311,4-.174,3.756,0,3.148.22,2.691" transform="translate(156.987 125.439)"/><path class="d" d="M14.407,19.065A9.091,9.091,0,0,1,11.055,20.8,36.975,36.975,0,0,1,.629,22.376a10.7,10.7,0,0,1-.591-4.513,58.287,58.287,0,0,0,8.27-2.49,3.927,3.927,0,0,0,2.757-2.485A56.626,56.626,0,0,0,12.83,3.854a5.706,5.706,0,0,1,.454-1.978A3.836,3.836,0,0,1,16.562,0a5.952,5.952,0,0,1,3.731,1.265A4.107,4.107,0,0,1,21.9,3.436a5.016,5.016,0,0,1-.315,2.715A41.185,41.185,0,0,1,16,17.3a9.327,9.327,0,0,1-1.59,1.766" transform="translate(161.263 106.792)"/><path class="m" d="M1.137,9.224A14.954,14.954,0,1,1,9.253,28.7,14.978,14.978,0,0,1,1.137,9.224" transform="translate(141.716 93.117)"/><path class="n" d="M.952,7.879A12.443,12.443,0,0,1,17.3.968a12.819,12.819,0,0,1,6.791,16.637,12.443,12.443,0,0,1-16.35,6.91A12.819,12.819,0,0,1,.952,7.879" transform="translate(144.16 95.603)"/><path class="o" d="M22.63,0a13.134,13.134,0,0,1-.76,7.205A12.518,12.518,0,0,1,5.39,14.211,12.61,12.61,0,0,1,0,9.868,12.849,12.849,0,0,0,7.6,19.53a12.518,12.518,0,0,0,16.48-7.006A13.159,13.159,0,0,0,22.63,0" transform="translate(144.16 100.576)"/><path class="p" d="M1.13,8.5a10.939,10.939,0,0,1,14.418-6.15A11.229,11.229,0,0,1,21.99,9.871,11.3,11.3,0,0,0,15.257.862,10.94,10.94,0,0,0,.839,7.011,11.572,11.572,0,0,0,.385,14.3,11.564,11.564,0,0,1,1.13,8.5" transform="translate(145.381 96.847)"/><path class="q" d="M8.694.546,8.1,2.025A3.316,3.316,0,0,1,9.276,3.216a5.01,5.01,0,0,1,.5,1.813l-1.751.215a2.134,2.134,0,0,0-1.2-1.925,1.61,1.61,0,0,0-1.221-.063,1.342,1.342,0,0,0-.815.8,1.349,1.349,0,0,0-.013,1.038A5.548,5.548,0,0,0,5.807,6.5,15.114,15.114,0,0,1,6.953,7.9,4.409,4.409,0,0,1,7.54,8.979a3.531,3.531,0,0,1-.065,2.58A3.82,3.82,0,0,1,5.827,13.5a3.781,3.781,0,0,1-2.493.472L2.71,15.539l-1.276-.546.606-1.518A4.29,4.29,0,0,1,.266,11.524a5.442,5.442,0,0,1-.15-2.875l1.743.339a4.343,4.343,0,0,0,.149,1.981A2.062,2.062,0,0,0,3.14,12,1.952,1.952,0,0,0,4.7,12.04,1.926,1.926,0,0,0,5.774,10.9a1.8,1.8,0,0,0,.034-1.39,4.648,4.648,0,0,0-.47-.78A12.722,12.722,0,0,0,4.45,7.649a6.12,6.12,0,0,1-1.378-2,3.2,3.2,0,0,1,.079-2.273,3.14,3.14,0,0,1,.571-.94,2.907,2.907,0,0,1,.824-.642,3.18,3.18,0,0,1,1.048-.325,4.405,4.405,0,0,1,1.232.014L7.417,0Z" transform="translate(151.489 100.576)"/><path class="s" d="M2.443,6.216.679,6.206A38.255,38.255,0,0,1,0,0C.835.381,1.949.071,2.177,1.495c.074.461.15,4.72.266,4.721" transform="translate(178.977 186.353)"/><path class="u" d="M4.3,0A1,1,0,0,0,3.629.54a3.158,3.158,0,0,1-.269.509.956.956,0,0,1-.409.258,9.077,9.077,0,0,0-1.876.809,2.65,2.65,0,0,1-.759.344.5.5,0,0,0-.228.1A.38.38,0,0,0,0,2.847a1.16,1.16,0,0,0,.714.968c.456.2.976.211,1.444.384a2.963,2.963,0,0,0,1.689.058A11.6,11.6,0,0,0,7.038,2.8a.523.523,0,0,0,.237-.22.947.947,0,0,0,.053-.422C7.305,1.344,7.284.095,6.445.127c-.358.014-.674.32-1.06.307C5.068.423,4.538-.041,4.3,0" transform="translate(175.312 191.947)"/><path class="i" d="M.25,20.64A13.3,13.3,0,0,0,0,23.13a13.281,13.281,0,0,0,.431,2.654L5.864,49.1l3.565-.29a9.827,9.827,0,0,0,1.995-.706,9.707,9.707,0,0,0-.005-1.279c-.939-9.374-2.4-16.465-1.974-24.759.107-2.085,1.25-3.475,2.22-5.285,3.3-6.15,3.944-11.32,5.437-15.371C17.2,1.157,7.24.1,6.748.053c-1.251-.132-2.319-.105-3,1.165C3,2.622,2.939,4.636,2.672,6.19q-.586,3.417-1.16,6.836Q.873,16.832.25,20.64" transform="translate(171.647 143.464)"/><path class="s" d="M3.054,6.056l-1.762.16A39.486,39.486,0,0,1,0,0C.871.305,1.952-.116,2.321,1.3c.119.459.617,4.763.733,4.753" transform="translate(191.193 186.974)"/><path class="u" d="M4.393.1a1.094,1.094,0,0,0-.673.654,3.424,3.424,0,0,1-.24.581,1.052,1.052,0,0,1-.419.324A10.011,10.011,0,0,0,1.1,2.743,2.913,2.913,0,0,1,.309,3.2a.548.548,0,0,0-.238.136.415.415,0,0,0-.066.319,1.259,1.259,0,0,0,.879.973C1.4,4.8,1.97,4.75,2.5,4.888a3.26,3.26,0,0,0,1.847-.119A12.773,12.773,0,0,0,7.672,2.849a.573.573,0,0,0,.236-.264,1.032,1.032,0,0,0,.014-.464C7.811,1.235,7.659-.118,6.748.008c-.389.054-.7.42-1.124.447C5.278.477,4.651.03,4.393.1" transform="translate(188.75 191.947)"/><path class="i" d="M4.626,33.776c1.3,5.358,3.1,10.65,3.447,16.152a1.156,1.156,0,0,0,.214.73A1.084,1.084,0,0,0,9,50.921a9.8,9.8,0,0,0,4.838-.75c.02-2.876-.818-5.679-1.282-8.518a64.435,64.435,0,0,1-.562-10.6c.028-8.653,2.667-17.783,1.923-26.4-.141-1.633-2.858-2.83-3.5-4.339A22.619,22.619,0,0,1,0,0C.133,1.77.529,3.344.81,5.066c.369,2.267.372,4.644.571,6.932.407,4.675.908,9.345,1.672,13.976.432,2.618.947,5.223,1.574,7.8" transform="translate(182.031 140.978)"/><path class="d" d="M19.794.623A5.684,5.684,0,0,1,21.78,1.8a23.706,23.706,0,0,1,4.159,5.925,44.483,44.483,0,0,1,4.568,13.811C31.775,29.608,30.985,37.9,29.77,46Q14.99,41.863,0,38.662c1.073.229,4.312-5.995,4.791-6.935,1.245-2.442,2.684-5.535,2.833-8.362.262-5-.99-9.962-.547-14.964.169-1.9,0-3.6,1.248-5.1A9.228,9.228,0,0,1,13.6.209a12.492,12.492,0,0,1,6.192.414" transform="translate(169.203 103.684)"/><path class="w" d="M4.741,1.823A9.731,9.731,0,0,1,4.77,3.076a22.872,22.872,0,0,1-.507,3.305c-.211.94-.478,1.866-.652,2.815a26.843,26.843,0,0,0-.336,3.143C2.832,19.269,2.878,26.321,1.13,33a35.18,35.18,0,0,0-1.106,4.71,1.309,1.309,0,0,0,.163,1,1.111,1.111,0,0,0,.74.3q3.059.413,6.123.776A49.717,49.717,0,0,1,7.584,31.5a70.606,70.606,0,0,0,.138-12.628c-.26-3.3-.752-6.575-1-9.878a25.4,25.4,0,0,1-.151-5.726c.139-.907.9-1.819,1-2.6C7.7-.4,6.517.085,5.73.264c-.967.22-1.027.8-.989,1.559" transform="translate(175.923 104.305)"/><path class="v" d="M5.974,14.9a14.42,14.42,0,0,0,2.208-.457c.671-.144.962-.41.928-1.166A6.222,6.222,0,0,1,9.443,10.9c.22-.627.65-1.118.895-1.728A8.67,8.67,0,0,0,10.813,7.5a12.56,12.56,0,0,0,.165-2.836A9.7,9.7,0,0,0,10.389,2.6,4.241,4.241,0,0,0,9.757,1.1,3.431,3.431,0,0,0,7.21.019C4.521-.173-.271,1.084.012,4.605A14.543,14.543,0,0,0,.443,6.887C.83,8.475,1,11.516,2.914,12.053a8.553,8.553,0,0,1,1.645.283c.881.45.9,1.715,1.416,2.567" transform="translate(175.312 90.631)"/><path class="i" d="M16.269,2.679a5.9,5.9,0,0,1-2.052-1.314A4.569,4.569,0,0,0,12.1.185,11.8,11.8,0,0,0,9.927.329a15.961,15.961,0,0,1-2.3-.282A6.87,6.87,0,0,0,1.7,2.285C.85,3.266-.528,5.542.21,6.9a1.174,1.174,0,0,0,.775.585c.429.091.9-.132,1.314-.014a1.507,1.507,0,0,1,.688.562A5.22,5.22,0,0,0,4.582,9.453a4.394,4.394,0,0,0,2.033.236.848.848,0,0,0,.441-.1,1.3,1.3,0,0,0,.347-.57,1.076,1.076,0,0,1,1.021-.651.75.75,0,0,1,.627.938c-.157.415-.665.524-1.088.621-.129.03-.284.1-.291.231a.33.33,0,0,0,.128.231l2,1.986c.405.4,1.308,1.786,1.892,1.125.985-1.114,1.026-2.612,1.934-3.674a11.751,11.751,0,0,0,1.123-1.554A21.264,21.264,0,0,1,16.51,5.065c.307-.353.7-.628,1.008-.977a3.21,3.21,0,0,0,.806-2.16,1.7,1.7,0,0,1-2.055.75" transform="translate(174.701 86.901)"/><path class="i" d="M4.358.181a.759.759,0,0,1,.474.326.726.726,0,0,1-.25.828c-.23.2-.52.313-.744.52a2.726,2.726,0,0,0-.564,2.029q-.068,12-.888,23.985l-1.654.724A13.685,13.685,0,0,1,0,24.344a21.235,21.235,0,0,1,.358-3.207C1.009,17.076,1.532,12.993,2.009,8.9c.236-2.024.487-4.05.687-6.079.066-.668-.132-1.462-.039-2.08.138-.918.851-.832,1.7-.565" transform="translate(178.977 104.927)"/><path class="i" d="M37.908.034,1.454,3.312A1.552,1.552,0,0,0,.005,4.952L2.962,39.039A1.54,1.54,0,0,0,4.67,40.4l42.742-3.844a1.552,1.552,0,0,0,1.448-1.64L46.422,6.793A7.675,7.675,0,0,0,37.908.034" transform="translate(133.165 109.278)"/><path class="z" d="M38.142.034,1.227,3.455A1.337,1.337,0,0,0,0,4.881L3,40.459a1.31,1.31,0,0,0,1.442,1.18l43.2-4a1.337,1.337,0,0,0,1.223-1.427L46.384,6.777A7.486,7.486,0,0,0,38.142.034" transform="translate(131.332 108.656)"/><path class="i" d="M17.5,0,4.553,1.154A4.83,4.83,0,0,0,.017,6.243l.008.094a4.813,4.813,0,0,0,5.35,4.209L18.325,9.392Z" transform="translate(165.538 121.709)"/><path class="i" d="M17.714,5.067,17.308,0,4.5,1.245A5.075,5.075,0,0,0,.017,6.736l.008.1Z" transform="translate(165.538 121.709)"/><path class="y" d="M.214,5.645q-.077-.161-.15-.324A.6.6,0,0,1,0,5.116a.606.606,0,0,1,.035-.209A9.143,9.143,0,0,1,1.021,2.84c.147-.248.149-.279.423-.308.3-.032.618-.028.923-.03.392-.158.79-.3,1.17-.493.96-.495,2.521-2.69,3.6-1.8a2.141,2.141,0,0,1,.553.6,2.061,2.061,0,0,1,.193.663c.029.18.115.455.016.61s-.54.326-.705.426l-1.416.856c-.463.28-.987.654-1.036,1.2a2.808,2.808,0,0,1-.022.358,1.055,1.055,0,0,1-.185.364A7.082,7.082,0,0,1,3.55,6.432c-.334.308-.645.2-1.038.173a11.969,11.969,0,0,0-1.19.231c-.408.018-.631-.276-.835-.656Q.345,5.917.214,5.645" transform="translate(172.868 134.762)"/><path class="d" d="M13.248,18.987a9.335,9.335,0,0,1-2.273,3.039,36.649,36.649,0,0,1-8.621,5.945A10.719,10.719,0,0,1,0,24.092a58.719,58.719,0,0,0,6.335-5.853,4.1,4.1,0,0,0,1.441-3.467A58.642,58.642,0,0,0,5.682,5.735a5.914,5.914,0,0,1-.4-2.007A3.946,3.946,0,0,1,7.434.6,5.642,5.642,0,0,1,11.26.144a3.908,3.908,0,0,1,2.311,1.289,5.152,5.152,0,0,1,.821,2.622,43.274,43.274,0,0,1-.448,12.627,9.792,9.792,0,0,1-.7,2.3" transform="translate(177.755 110.521)"/></svg>