<svg xmlns="http://www.w3.org/2000/svg" width="20" height="20" viewBox="0 0 20 20"><defs><style>.a{fill:rgba(0,0,0,0);}.b{fill:#1b2749;}</style></defs><rect class="a" width="20" height="20"/><g transform="translate(0.846 0.99)"><path class="b" d="M12.089,11.07l-1.945,1.917L5.178,8.02,7.095,6.075a.833.833,0,0,0,.172-.912L5.27.5A.833.833,0,0,0,4.291.028L.625,1A.833.833,0,0,0,0,1.83,17.622,17.622,0,0,0,4.987,13.177a17.622,17.622,0,0,0,11.351,4.986.833.833,0,0,0,.833-.624l.968-3.667a.833.833,0,0,0-.477-.979L13,10.9A.833.833,0,0,0,12.089,11.07Z" transform="translate(0 0)"/></g></svg>