<svg xmlns="http://www.w3.org/2000/svg" xmlns:xlink="http://www.w3.org/1999/xlink" width="252" height="252" viewBox="0 0 252 252"><defs><style>.a{fill:rgba(0,0,0,0);}.b,.g{fill:#fa7268;}.b,.c,.h,.n,.r{opacity:0.1;}.c{fill:#b643d5;}.d{fill:#3a3768;}.e{fill:#fff;}.f{fill:#e6e8ec;}.h{fill:#6c63ff;}.i{fill:#417505;}.j{fill:#ffd037;}.k{fill:url(#a);}.l{fill:url(#b);}.m{fill:#ffbdc6;}.o{fill:#474463;}.p{fill:#002d51;}.q{fill:#f6f6f6;}</style><linearGradient id="a" x1="0.504" y1="1.01" x2="0.504" gradientUnits="objectBoundingBox"><stop offset="0" stop-color="gray" stop-opacity="0.251"/><stop offset="0.54" stop-color="gray" stop-opacity="0.122"/><stop offset="1" stop-color="gray" stop-opacity="0.102"/></linearGradient><linearGradient id="b" x1="362.499" y1="612.82" x2="362.499" y2="216.23" xlink:href="#a"/></defs><rect class="a" width="252" height="252"/><g transform="translate(16.178 27.859)"><path class="b" d="M127.977,24.7c-14.12-.5-27.569-5.131-40.412-10.2S62,3.817,48.22,1.131C39.355-.6,29.216-.84,22.075,3.99c-6.875,4.657-9.1,12.674-10.29,20.12-.9,5.6-1.427,11.5,1.034,16.741,1.711,3.641,4.743,6.7,6.842,10.189,7.3,12.135,2.14,27.1-5.771,38.948-3.709,5.559-8.018,10.867-10.883,16.779s-4.189,12.7-1.682,18.732c2.483,5.987,8.4,10.476,14.815,13.636,13.024,6.42,28.364,8.257,43.334,9.3,33.127,2.3,66.428,1.306,99.642.308,12.292-.37,24.638-.745,36.729-2.677,6.716-1.074,13.648-2.775,18.524-6.886,6.188-5.218,7.722-14.054,3.574-20.6-6.956-10.975-26.182-13.7-31.05-25.478-2.675-6.484.072-13.7,3.962-19.719,8.344-12.9,22.327-24.214,23.063-38.957C214.424,24.3,207.7,14.16,197.307,9.368c-10.894-5.021-26-4.391-34.037,3.923C154.991,21.851,140.446,25.143,127.977,24.7Z" transform="translate(0 0)"/><path class="c" d="M66.322,18.238c36.629,0,66.322-4.083,66.322-9.119S102.95,0,66.322,0,0,4.082,0,9.118,29.693,18.238,66.322,18.238Z" transform="translate(51.84 162.095)"/><path class="d" d="M1.434,0H.5A.5.5,0,0,0,0,.507V15.685a.5.5,0,0,0,.5.508h.934a.5.5,0,0,0,.5-.508V.507A.5.5,0,0,0,1.434,0Z" transform="translate(152.921 62.291)"/><path class="d" d="M.585,0H.5A.5.5,0,0,0,0,.508V4.823a.5.5,0,0,0,.5.508H.585a.5.5,0,0,0,.5-.508V.508A.5.5,0,0,0,.585,0Z" transform="translate(88.681 49.603)"/><path class="d" d="M.722,0H.5A.5.5,0,0,0,0,.507V8.771a.5.5,0,0,0,.5.507H.722a.5.5,0,0,0,.5-.507V.507A.5.5,0,0,0,.722,0Z" transform="translate(88.64 59.366)"/><path class="d" d="M.663,0H.5A.5.5,0,0,0,0,.508V8.851a.5.5,0,0,0,.5.507H.663a.5.5,0,0,0,.5-.507V.508A.5.5,0,0,0,.663,0Z" transform="translate(88.661 71.89)"/><path class="d" d="M56.162,0H8.507A8.578,8.578,0,0,0,0,8.647V124.94a8.578,8.578,0,0,0,8.507,8.647H56.162a8.578,8.578,0,0,0,8.508-8.647V8.647A8.578,8.578,0,0,0,56.162,0Z" transform="translate(89.295 31.986)"/><path class="e" d="M51.552,0H44.134V.907a4.341,4.341,0,0,1-.323,1.644,4.283,4.283,0,0,1-.917,1.395,4.2,4.2,0,0,1-1.372.931A4.171,4.171,0,0,1,39.9,5.2H16.311a4.174,4.174,0,0,1-1.619-.327,4.2,4.2,0,0,1-1.372-.931A4.3,4.3,0,0,1,12.4,2.552,4.341,4.341,0,0,1,12.081.907V0H5.136A5.1,5.1,0,0,0,1.5,1.528,5.267,5.267,0,0,0,0,5.22v116.2a5.263,5.263,0,0,0,1.5,3.691,5.1,5.1,0,0,0,3.632,1.529H51.552a5.1,5.1,0,0,0,3.632-1.529,5.263,5.263,0,0,0,1.5-3.691V5.229a5.29,5.29,0,0,0-.389-2,5.226,5.226,0,0,0-1.112-1.7A5.094,5.094,0,0,0,51.552,0Z" transform="translate(93.289 35.457)"/><path class="f" d="M8.186,0H.844A.851.851,0,0,0,0,.859V1a.851.851,0,0,0,.844.859H8.186A.852.852,0,0,0,9.03,1V.859A.852.852,0,0,0,8.186,0Z" transform="translate(115.391 35.976)"/><path class="f" d="M1.041,2.116A1.049,1.049,0,0,0,2.082,1.058,1.05,1.05,0,0,0,1.041,0,1.05,1.05,0,0,0,0,1.058,1.049,1.049,0,0,0,1.041,2.116Z" transform="translate(125.787 35.85)"/><path class="g" d="M16.384.024S-1.987-1.1.177,11.982A3.2,3.2,0,0,0,1.81,15.344s.032-.97,1.885-.639a8.527,8.527,0,0,0,2,.1,4.122,4.122,0,0,0,2.44-1.014S13.295,11.62,15.3,3.043c0,0,1.486-1.872,1.427-2.353l-3.1,1.346A5.7,5.7,0,0,1,13.846,6.2s-.1-4.081-.7-3.992c-.12.018-1.61.788-1.61.788s1.822,3.958.447,6.836c0,0,.521-4.879-1.017-6.551l-2.182,1.3s2.13,4.089.685,7.427c0,0,.371-5.118-1.145-7.112L6.353,6.457s2,4.03.781,6.8c0,0-.159-5.956-1.209-6.407A12.261,12.261,0,0,0,3.931,9.035s1.369,2.927.519,4.471c0,0-.521-3.969-.948-3.992a13.268,13.268,0,0,0-1.9,4.436A9.671,9.671,0,0,1,3.084,9.266a5.161,5.161,0,0,0-2.64,1.388S.712,8.8,3.51,8.631a12.124,12.124,0,0,1,1.8-2.115,11.133,11.133,0,0,0-4.467.523s1.484-1.754,4.977-.956L7.776,4.462s-3.661-.508-5.214.053c0,0,1.786-1.552,5.741-.421L10.427,2.8a19.224,19.224,0,0,0-4.981-.444s1.964-1.075,5.606.091l1.527-.693S10.292,1.3,9.622,1.226s-.7-.259-.7-.259a7.807,7.807,0,0,1,4.3.485S16.439.23,16.384.024Z" transform="translate(159.969 26.104)"/><path class="g" d="M7.4.011S-.89-.5.079,5.416A1.452,1.452,0,0,0,.817,6.934s.015-.443.853-.29a3.758,3.758,0,0,0,.9.045,1.852,1.852,0,0,0,1.1-.462s2.334-.98,3.243-4.856c0,0,.67-.845.643-1.063l-1.4.608a2.6,2.6,0,0,1,.1,1.88S6.214.954,5.946,1c-.055,0-.729.358-.729.358a4.265,4.265,0,0,1,.2,3.089s.236-2.2-.46-2.961l-.986.594a4.491,4.491,0,0,1,.31,3.356s.168-2.313-.518-3.214l-.892.709s.9,1.821.353,3.072c0,0-.074-2.692-.548-2.9a5.518,5.518,0,0,0-.9.989s.62,1.331.236,2.021c0,0-.236-1.794-.437-1.8a6.02,6.02,0,0,0-.86,2A4.387,4.387,0,0,1,1.39,4.189,2.331,2.331,0,0,0,.2,4.816s.122-.84,1.385-.913A6.033,6.033,0,0,1,2.4,2.945,5.042,5.042,0,0,0,.38,3.183,2.241,2.241,0,0,1,2.627,2.75L3.5,2.018a7.4,7.4,0,0,0-2.357.025,2.83,2.83,0,0,1,2.594-.191l.96-.582a8.589,8.589,0,0,0-2.251-.2,3.407,3.407,0,0,1,2.533.041L5.666.8S4.632.592,4.329.559,4.01.442,4.01.442A3.52,3.52,0,0,1,5.952.663,8.812,8.812,0,0,0,7.4.011Z" transform="translate(150.108 20.297)"/><path class="g" d="M.158.011S8.449-.5,7.48,5.416a1.452,1.452,0,0,1-.738,1.519s-.015-.444-.853-.29a3.816,3.816,0,0,1-.9.045,1.858,1.858,0,0,1-1.1-.462S1.551,5.246.644,1.37c0,0-.67-.845-.643-1.062L1.4.915A2.6,2.6,0,0,0,1.3,2.8S1.345.953,1.613,1c.055,0,.729.357.729.357a4.268,4.268,0,0,0-.2,3.09s-.236-2.2.46-2.961l.986.594a4.489,4.489,0,0,0-.31,3.355s-.168-2.313.518-3.214l.892.71S3.781,4.748,4.331,6c0,0,.075-2.691.548-2.9a5.515,5.515,0,0,1,.9.989s-.62,1.33-.236,2.021c0,0,.236-1.795.437-1.8a6.012,6.012,0,0,1,.86,2,4.374,4.374,0,0,0-.672-2.115,2.331,2.331,0,0,1,1.194.627S7.24,3.976,5.976,3.9a6.021,6.021,0,0,0-.816-.958,5.034,5.034,0,0,1,2.018.237A2.242,2.242,0,0,0,4.931,2.75l-.872-.732a7.394,7.394,0,0,1,2.356.025,2.827,2.827,0,0,0-2.593-.191l-.96-.583a8.6,8.6,0,0,1,2.251-.2,3.409,3.409,0,0,0-2.533.04L1.893.8S2.927.592,3.23.559s.319-.118.319-.118A3.534,3.534,0,0,0,1.606.663,8.8,8.8,0,0,1,.158.011Z" transform="translate(68.986 140.748)"/><path class="g" d="M10.47.015S-1.259-.676.111,7.355A1.939,1.939,0,0,0,1.155,9.419s.021-.6,1.207-.4a5.548,5.548,0,0,0,1.275.06A2.68,2.68,0,0,0,5.2,8.458s3.3-1.331,4.587-6.6c0,0,.947-1.147.91-1.442l-1.981.825A3.4,3.4,0,0,1,8.856,3.8s-.065-2.5-.444-2.446c-.078,0-1.031.484-1.031.484s1.167,2.431.287,4.2c0,0,.333-2.995-.651-4.022l-1.395.807s1.361,2.509.439,4.558c0,0,.237-3.141-.732-4.365l-1.262.964s1.278,2.473.5,4.171c0,0-.105-3.656-.775-3.934A7.635,7.635,0,0,0,2.516,5.556s.877,1.808.333,2.744c0,0-.333-2.436-.617-2.449A8.014,8.014,0,0,0,1.016,8.563a5.793,5.793,0,0,1,.95-2.874,3.353,3.353,0,0,0-1.688.853S.452,5.4,2.238,5.3A8.274,8.274,0,0,1,3.393,4a7.4,7.4,0,0,0-2.856.323s.947-1.076,3.179-.587L4.951,2.74a10.9,10.9,0,0,0-3.333.034s1.141-.952,3.669-.26l1.358-.791A12.657,12.657,0,0,0,3.46,1.454a5,5,0,0,1,3.584.054l.972-.425S6.553.8,6.124.759,5.674.6,5.674.6A5.188,5.188,0,0,1,8.42.9,12.785,12.785,0,0,0,10.47.015Z" transform="translate(51.877 105.972)"/><path class="h" d="M5.876,2.018c3.245,0,5.876-.452,5.876-1.009S9.121,0,5.876,0,0,.452,0,1.008,2.631,2.018,5.876,2.018Z" transform="translate(26.67 176.788)"/><path class="h" d="M5.875,2.018c3.246,0,5.876-.452,5.876-1.009S9.121,0,5.875,0,0,.452,0,1.008,2.631,2.018,5.875,2.018Z" transform="translate(49.398 182.202)"/><path class="i" d="M8.774,3.015c4.845,0,8.773-.675,8.773-1.508S13.619,0,8.774,0,0,.675,0,1.508,3.928,3.015,8.774,3.015Z" transform="translate(179.585 178.822)"/><path class="i" d="M8.114,4.11A2.591,2.591,0,0,0,8.95,2.826a1.151,1.151,0,0,0-.585-1.306c-.537-.209-1.111.17-1.545.552s-.934.818-1.5.736a2.33,2.33,0,0,0,.637-.993A2.364,2.364,0,0,0,6.026.633a.922.922,0,0,0-.2-.444C5.531-.135,4.99,0,4.634.261,3.5,1.07,3.183,2.638,3.176,4.046a7.245,7.245,0,0,1-.021-1.552,1.614,1.614,0,0,0-.576-1.381A1.712,1.712,0,0,0,1.707.9a1.8,1.8,0,0,0-1.428.413A1.448,1.448,0,0,0,.336,3.09a5.567,5.567,0,0,0,1.477,1.2A3.294,3.294,0,0,1,2.867,5.315a.957.957,0,0,1,.078.184H6.133A8.95,8.95,0,0,0,8.114,4.11Z" transform="translate(183.872 173.753)"/><path class="i" d="M8.774,3.015c4.845,0,8.773-.675,8.773-1.508S13.619,0,8.774,0,0,.675,0,1.508,3.928,3.015,8.774,3.015Z" transform="translate(65.421 167.553)"/><path class="i" d="M8.115,4.11a2.6,2.6,0,0,0,.836-1.284,1.152,1.152,0,0,0-.585-1.306c-.537-.209-1.111.17-1.545.552s-.934.818-1.5.736a2.33,2.33,0,0,0,.637-.993A2.364,2.364,0,0,0,6.027.633a.922.922,0,0,0-.2-.444C5.532-.135,4.99,0,4.635.261,3.5,1.07,3.184,2.638,3.177,4.046a7.182,7.182,0,0,1-.021-1.552A1.617,1.617,0,0,0,2.58,1.112,1.713,1.713,0,0,0,1.707.9,1.8,1.8,0,0,0,.28,1.317,1.448,1.448,0,0,0,.336,3.091a5.587,5.587,0,0,0,1.478,1.2A3.291,3.291,0,0,1,2.867,5.315a.9.9,0,0,1,.079.184H6.133A8.933,8.933,0,0,0,8.115,4.11Z" transform="translate(69.708 162.484)"/><path class="j" d="M.837.359C.837.92.776,1.374.7,1.374S.562.92.562.359s.076-.3.153-.3S.837-.2.837.359Z" transform="translate(56.969 160.085)"/><path class="j" d="M.945.566C.46.834.037,1,0,.927S.328.585.812.317s.294-.073.329,0S1.429.3.945.566Z" transform="translate(57.626 160.855)"/><path class="k" d="M.592.737A.207.207,0,0,0,.706.793.2.2,0,0,0,.83.768.843.843,0,0,1,.592.737Z" transform="translate(73.657 95.899)"/><path class="l" d="M42.087,87.96c-2.849,0-4.742-1.718-5.787-5.252-.24-.81-.506-1.753-.789-2.753l0-.008v0c-1.809-6.4-4.543-16.068-7.366-16.726l.6-.494-.188-.154a59.084,59.084,0,0,0-6.213-4.553c-.146-.085-.318-.184-.487-.275a8.787,8.787,0,0,1-2.764-.731,2,2,0,0,1-1.01-.952,1.329,1.329,0,0,1,.161-1.224l.029,0c1-.068,9.836-.663,12.431-.663.194,0,.361,0,.485.011a5.126,5.126,0,0,1,3.446,1.369,1.583,1.583,0,0,1,.361,1.243c-.082.628-.7.994-1.83,1.087l-.041.222-.092.494c1.075-.068,2.2-.136,3.33-.2-.026-.617-.026-1.188,0-1.7-.035,0-.052-.009-.051-.021s.04-.036.051-.036l.007-.081v-.011c.005-.055.011-.113.011-.167H36.2a.182.182,0,0,1-.072.024h-.023a.2.2,0,0,1-.052-.007.226.226,0,0,1-.054.007.189.189,0,0,1-.048-.006.194.194,0,0,1-.09-.05.638.638,0,0,0,.143.026.21.21,0,0,1-.034-.026.558.558,0,0,0,.131.024c.382-.247.86-2.035-.24-11.239-.38-3.178-1.148-5.526-2.281-6.979a4.272,4.272,0,0,0-3.4-1.782,5.812,5.812,0,0,0-1.51.222l.152-.07a10.226,10.226,0,0,0-2.828,1.23l-.037.022-.1.059c-1.2.7-5.184,3.564-5.971,4.131l-.011.008L6.711,49.6a.612.612,0,0,0-.079-.479c-.073.067-.151.141-.263.248a47.633,47.633,0,0,0-4.879,6.653,5.314,5.314,0,0,1-1.452-4.16c.309-2.315,2.372-4.045,3.575-4.87l.022-.015.049-.033c.059-.04.115-.078.168-.111-.184-.111-.3-.175-.3-.176l.012-.007c.527-.294,5.292-2.964,10.363-6.254,3.118-2.022,5.726-3.872,7.752-5.5,2.532-2.032,4.155-3.717,4.825-5.008A11.631,11.631,0,0,1,29,26.742c-.186-.055-.347-.108-.489-.164.076-.039.152-.082.234-.134l-.056-.02-.026-.009c-.051-.018-.1-.037-.152-.057a2.97,2.97,0,0,0,1.51-2.548,3.083,3.083,0,0,0-.048-.433,6.356,6.356,0,0,0-.98-2.116,4.661,4.661,0,0,1-.984-2.6c-.006-.112-.006-.226,0-.338a5.093,5.093,0,0,1,.413-1.394l.078-.2a14.649,14.649,0,0,0,.841-3.013,8.456,8.456,0,0,0,.116-1.133,3.683,3.683,0,0,0-.169-1.054,5.674,5.674,0,0,0-.826-1.448c-.086-.121-.178-.25-.265-.379a10.343,10.343,0,0,1-1.244-2.585,1.91,1.91,0,0,1-.13-.777,1.108,1.108,0,0,1,0-.292,1.765,1.765,0,0,1,.547-.888,7.3,7.3,0,0,1,3.308-2.372,7.237,7.237,0,0,1,1.212-.1c.219,0,.443.01.665.03s.454.011.69.011a22.121,22.121,0,0,0,2.569-.15c.168-.018.352-.032.576-.049a5.236,5.236,0,0,0,2.581-.617,6.883,6.883,0,0,0,.661-.6,3.745,3.745,0,0,1,1.3-.954A5.762,5.762,0,0,1,43.675.046,16.488,16.488,0,0,1,46.8.818c.627.2,1.275.4,1.928.559a2.508,2.508,0,0,0,.745.113,2.506,2.506,0,0,0,.564-.064,3.135,3.135,0,0,0,.766-.415A2.057,2.057,0,0,1,51.877.554h.029a2.085,2.085,0,0,1,1.14.574,13.8,13.8,0,0,1,1.568,1.39,15.056,15.056,0,0,1,1.7,2.442l.006.01a19.961,19.961,0,0,0,1.255,1.91A4.567,4.567,0,0,0,60.9,8.889a2.4,2.4,0,0,0,.931-.186l-.03.108,0,.014c-.012.04-.023.081-.034.121l.067-.027a10.427,10.427,0,0,1-1.767,3.666c.875.312,1.481.516,1.906.643a4.575,4.575,0,0,1,2.8,1.9,2.3,2.3,0,0,1,.352,1.163,30.5,30.5,0,0,1-7.4,6.316c-3.359,2.192-3.737,4.8-3.463,6.608a3.792,3.792,0,0,0,.872,1.843c.768.917.6,2.507.329,3.68a14.21,14.21,0,0,1-.785,2.349l-.528,6.24.111-.024-.017.209c-.006,0-.615.091-1.553.31v.41a86.939,86.939,0,0,0,1.335,11.585l-.054.028c.035.193.054.3.054.3a2.919,2.919,0,0,1-.324.159c.769,2.1,2.229,5.979,3.37,8.334a115.183,115.183,0,0,1,4.536,13.348,5.09,5.09,0,0,1,.132,2.4,5.029,5.029,0,0,1-.893,2.05,5.147,5.147,0,0,1-4.123,2.129,5.054,5.054,0,0,1-2.243-.532c-.138-.068-.276-.139-.454-.233l-.4-.508-5.256-6.677v.113c-.032,1.016-.4,9.953-3.369,10.776A10.927,10.927,0,0,1,42.087,87.96Zm-5.81-25.205h0a20.164,20.164,0,0,1,1.636,3.354c-.044-.2-.249-1.2-.468-2.5C37.039,63.308,36.646,63.019,36.277,62.754ZM51.926,14.661c-.2,0-.371,0-.539.012v2.884A26.393,26.393,0,0,0,56.063,14.6l-.241-.17a7.417,7.417,0,0,1-1.444.247c-.218.015-.451.022-.713.022s-.556-.008-.828-.016h-.053C52.52,14.67,52.219,14.661,51.926,14.661Z" transform="translate(38.422 39.279)"/><path class="m" d="M12.457,0l-.236,1.3-.181.994L11.71,4.112,8.516,6.384s-.288-.251-.764-.645A55.7,55.7,0,0,0,1.671,1.215,6.722,6.722,0,0,0,0,.433Z" transform="translate(70.786 100.211)"/><path class="n" d="M12.457,0l-.236,1.3a9.817,9.817,0,0,1-2.108-.111L2.66,1.3c-.351-.023-.68-.05-.988-.082A6.722,6.722,0,0,0,0,.433Z" transform="translate(70.786 100.211)"/><path class="o" d="M12.7,3.577s3.725.65,3.943-.967S14.722.12,12.913.011.243.661.243.661s-1.915,2.6,5,3.031Z" transform="translate(68.2 97.602)"/><path class="n" d="M12.457,0l-.236,1.3-.181.994L11.71,4.112,8.516,6.384s-.288-.251-.764-.645A55.7,55.7,0,0,0,1.671,1.215,6.722,6.722,0,0,0,0,.433Z" transform="translate(70.786 100.211)"/><path class="n" d="M12.457,0l-.236,1.3a9.817,9.817,0,0,1-2.108-.111L2.66,1.3c-.351-.023-.68-.05-.988-.082A6.722,6.722,0,0,0,0,.433Z" transform="translate(70.786 100.211)"/><path class="n" d="M12.7,3.584s3.727.648,3.94-.976S14.722.119,12.914.011.243.66.243.66s-1.916,2.6,5,3.029Z" transform="translate(68.199 97.591)"/><path class="o" d="M19.484,0H0V23.482H19.484Z" transform="translate(69.557 47.831)"/><path class="n" d="M19.484,0H0V23.482H19.484Z" transform="translate(69.557 47.938)"/><path class="m" d="M7.421,1.951A3.108,3.108,0,0,0,6.233,2.8,47.8,47.8,0,0,0,1.458,9.418c-3.6-4.353.384-7.793,2.079-8.975C3.949.157,4.227,0,4.227,0Z" transform="translate(39.304 86.079)"/><path class="m" d="M10.326,0s.958,6.816,4.259,8.44S10.326,13.1,10.326,13.1L0,9.2S5.856,7.249,4.684,1.515Z" transform="translate(72.702 55.243)"/><path class="m" d="M12.465,0l-.234,1.295-.189,1-.329,1.818L8.517,6.382s-.288-.249-.763-.643A55.472,55.472,0,0,0,1.671,1.215,6.719,6.719,0,0,0,0,.432Z" transform="translate(59.49 96.255)"/><path class="n" d="M12.456,0l-.233,1.295a9.754,9.754,0,0,1-2.108-.111l-7.453.109c-.351-.022-.683-.049-.99-.082A6.722,6.722,0,0,0,0,.428Z" transform="translate(59.497 96.255)"/><path class="o" d="M12.7,3.583s3.727.648,3.938-.973S14.722.12,12.911.011.244.661.244.661s-1.918,2.6,5,3.031Z" transform="translate(56.913 93.646)"/><path class="n" d="M4.287.075,3.958,1.894.764,4.164S.476,3.917,0,3.522L4.224,0Z" transform="translate(67.244 98.472)"/><path class="p" d="M25.774,29.656c-.146-.073-.292-.149-.436-.222l-.393-.5-5.152-6.639v.115c-.035,1.108-.405,9.9-3.3,10.706-3.087.865-6.812,1.083-8.509-4.761S3.186,9.74,0,8.981l4.74-3.95a28.939,28.939,0,0,1,4.416,7.3C9.107,12.11,6.94,1.821,8.719,0H24.264s2.4,6.947,4.046,10.389A117.75,117.75,0,0,1,32.75,23.655,5.022,5.022,0,0,1,25.774,29.656Z" transform="translate(66.854 93.665)"/><path class="n" d="M17.338,15.15c-2.4,1.444-12.935.856-16.363.621L.04,15.7c-.1,0,.016-.058.016-.058l.1-.982,2.555-6.6L16.387,0a12.315,12.315,0,0,0-.347,3.636A85.778,85.778,0,0,0,17.338,15.15Z" transform="translate(74.845 80.455)"/><path class="q" d="M17.453,15.144c-2.4,1.444-12.936.856-16.364.621L.155,15.7,0,15.686l.17-.045.842-.222L2.821,8.061,16.5,0a12.261,12.261,0,0,0-.347,3.637A85.726,85.726,0,0,0,17.453,15.144Z" transform="translate(74.732 80.135)"/><path class="n" d="M16,3.633C13.218,4.285,7.1,6.2,4.744,10.818c-1.569,3.076-2.889,4.4-3.81,4.947L0,15.7c.006-.019.012-.039.016-.057l.842-.222L2.667,8.061,16.347,0A12.337,12.337,0,0,0,16,3.633Z" transform="translate(74.879 80.135)"/><path class="n" d="M.689,0,3.883,1.948A3.115,3.115,0,0,0,2.7,2.8C2.43,2.012.759.909,0,.44.412.158.689,0,.689,0Z" transform="translate(42.841 86.083)"/><path class="n" d="M.826.771a.182.182,0,0,1-.114.02.18.18,0,0,1-.1-.051A.735.735,0,0,0,.826.771Z" transform="translate(73.483 95.189)"/><path class="g" d="M38.762,16.55a6.262,6.262,0,0,1-4.9-1.841s-8.51,2.49-11.391,8.116S0,39.491,0,39.491s3.407,1.947,3.087,2.92l12.885-7.575s4.582-3.353,5.854-4.112,8.306-5.411,9.8,7.249,0,11.146,0,11.146,2.13.759,5.217-5.3,12.667-7.466,12.667-7.466l.533-6.382s1.9-4.232.436-5.988a3.8,3.8,0,0,1-.853-1.832c-.242-1.621,0-4.322,3.391-6.566,5.216-3.464,7.24-6.276,7.24-6.276s.106-2.057-3.088-3.031S40.981,0,40.981,0l-.437,1.841L50.793,9.192S45.683,13.4,41.629,13.3C41.629,13.3,42.382,16.441,38.762,16.55Z" transform="translate(42.774 46.701)"/><path class="n" d="M6.359,2.643A21.449,21.449,0,0,1,5.771,0L.129,1.515A6.4,6.4,0,0,1,0,4.823a5.978,5.978,0,0,0,3.5-.115A6.068,6.068,0,0,0,6.359,2.643Z" transform="translate(77.15 55.567)"/><path class="m" d="M6.068,12.334a6.118,6.118,0,0,0,6.067-6.167A6.117,6.117,0,0,0,6.068,0,6.118,6.118,0,0,0,0,6.166,6.118,6.118,0,0,0,6.068,12.334Z" transform="translate(72.754 47.941)"/><path class="n" d="M16.515.05a42.063,42.063,0,0,1,4.941,1.33,2.417,2.417,0,0,0,1.279.052c.644-.2,1.168-.888,1.835-.867a1.942,1.942,0,0,1,1.113.57A13.564,13.564,0,0,1,27.21,2.519c1.143,1.262,1.852,2.96,2.895,4.333s2.688,2.44,4.169,1.81c-1.008,3.992-4.309,7.032-7.881,7.28-1.424.1-2.884-.2-4.263.222a3.706,3.706,0,0,1-1.076.266c-.793,0-1.433-.741-1.929-1.461-1.16-1.695-2.079-3.62-3.386-5.165a2.791,2.791,0,0,0-1.552-1.089,2.833,2.833,0,0,0-1.714.487,8.106,8.106,0,0,0-2.51,1.774,3.568,3.568,0,0,0-.846,3.1,7.364,7.364,0,0,1,.515,1.738c.014.983-.842,1.7-1.01,2.662a10.241,10.241,0,0,0-.042,1.211,4.972,4.972,0,0,1-1.8,3.214,2.306,2.306,0,0,0-.825,1.162c-.067.337,0,.7-.044,1.038a1.868,1.868,0,0,1-1.7,1.4,4.886,4.886,0,0,1-2.557-.308,3.018,3.018,0,0,0,1.432-3.18C2.754,21.258,1.017,20,1.165,18.208a5.645,5.645,0,0,1,.48-1.581,14.641,14.641,0,0,0,.82-2.994,5.129,5.129,0,0,0-.05-2.388,7.417,7.417,0,0,0-1.06-1.816A10.4,10.4,0,0,1,.126,6.87a1.8,1.8,0,0,1-.117-.845,1.74,1.74,0,0,1,.534-.887A7.024,7.024,0,0,1,3.779,2.78a7.089,7.089,0,0,1,1.837-.073,20.961,20.961,0,0,0,3.192-.138c.872-.1,2.348-.088,3.088-.665.689-.539,1.078-1.212,1.926-1.552A5.556,5.556,0,0,1,16.515.05Z" transform="translate(65.536 40.03)"/><path class="n" d="M0,0S3.513,7.034,2.448,9.2Z" transform="translate(85.423 103.776)"/><path class="n" d="M5.187,8.089.042,1.458v.116S-.254-.572.725.148C2.872,1.727,6.306,4.315,6.38,4.761A12.821,12.821,0,0,1,5.187,8.089Z" transform="translate(86.605 114.497)"/><g class="r" transform="translate(42.891 46.692)"><path class="n" d="M.969.087A2.676,2.676,0,0,1,0,2.828,2.432,2.432,0,0,0,2.181,0,6.809,6.809,0,0,1,.969.087Z" transform="translate(40.66 13.225)"/><path class="n" d="M1.172,24.17S20.76,13.132,23.645,7.507C25.706,3.468,30.677,1.047,33.317,0c-1.925.665-8.409,3.173-10.844,7.939C19.6,13.565,0,24.6,0,24.6Z" transform="translate(0 14.896)"/><path class="n" d="M4.881,12.452A23,23,0,0,0,11.4,8.768L1.172,1.406,1.405.4.426,0,0,1.841,10.222,9.2A24.636,24.636,0,0,1,4.881,12.452Z" transform="translate(40.56 0)"/><path class="n" d="M0,1.237A25.219,25.219,0,0,1,4.007.208L4.023,0A26.885,26.885,0,0,0,0,1.237Z" transform="translate(45.5 36.152)"/><path class="n" d="M8.631,19.882H8.538a.189.189,0,0,1-.218-.031.775.775,0,0,0,.218.031c.349-.206.872-1.823-.218-11.177C7.146-1.274,2.526-.5,0,.654c2.584-.723,6.137-.1,7.148,8.484,1.1,9.353.576,10.97.218,11.177A2.337,2.337,0,0,0,8.631,19.882Z" transform="translate(24.48 28.843)"/><path class="n" d="M.826.772A.742.742,0,0,1,.608.741a.185.185,0,0,0,.1.051A.189.189,0,0,0,.826.772Z" transform="translate(31.02 48.387)"/></g><path class="o" d="M16.515.046a42.262,42.262,0,0,1,4.941,1.331,2.416,2.416,0,0,0,1.279.049c.643-.2,1.168-.888,1.835-.867a2.023,2.023,0,0,1,1.112.57A13.67,13.67,0,0,1,27.21,2.513c1.143,1.262,1.853,2.96,2.9,4.333s2.688,2.44,4.169,1.81c-1.008,3.992-4.309,7.032-7.881,7.28-1.425.1-2.884-.2-4.263.222a3.651,3.651,0,0,1-1.076.266c-.794,0-1.434-.741-1.929-1.461-1.161-1.695-2.079-3.618-3.386-5.163a2.785,2.785,0,0,0-1.552-1.091,2.84,2.84,0,0,0-1.714.489,8.051,8.051,0,0,0-2.51,1.774,3.57,3.57,0,0,0-.846,3.106,7.382,7.382,0,0,1,.515,1.738c.013.985-.842,1.7-1.011,2.661a10.036,10.036,0,0,0-.041,1.211,4.978,4.978,0,0,1-1.8,3.213,2.3,2.3,0,0,0-.825,1.16c-.068.339,0,.7-.044,1.04a1.863,1.863,0,0,1-1.7,1.395,4.845,4.845,0,0,1-2.557-.308,3.013,3.013,0,0,0,1.431-3.178c-.329-1.756-2.066-3.018-1.917-4.805a5.608,5.608,0,0,1,.48-1.582,14.617,14.617,0,0,0,.821-3,5.131,5.131,0,0,0-.051-2.388,7.392,7.392,0,0,0-1.06-1.816A10.415,10.415,0,0,1,.127,6.866a1.831,1.831,0,0,1-.118-.847,1.752,1.752,0,0,1,.535-.876A7.04,7.04,0,0,1,3.78,2.785a7.177,7.177,0,0,1,1.837-.07,21.35,21.35,0,0,0,3.192-.138c.872-.1,2.347-.091,3.087-.666C12.585,1.375,12.973.7,13.822.36A5.594,5.594,0,0,1,16.515.046Z" transform="translate(65.535 39.817)"/><path class="e" d="M12.234,24.869A12.336,12.336,0,0,0,24.468,12.434,12.336,12.336,0,0,0,12.234,0,12.335,12.335,0,0,0,0,12.434,12.336,12.336,0,0,0,12.234,24.869Z" transform="translate(109.789 87.985)"/><path class="g" d="M16.353,33.238A16.188,16.188,0,0,1,4.791,28.371,16.821,16.821,0,0,1,1.246,10.26,16.512,16.512,0,0,1,7.269,2.8,16.172,16.172,0,0,1,27.914,4.868a16.558,16.558,0,0,1,3.545,5.392,16.855,16.855,0,0,1-1.51,15.592,16.359,16.359,0,0,1-7.338,6.121A16.041,16.041,0,0,1,16.353,33.238Zm-8-18.136a1.055,1.055,0,0,0-.745.313L6.114,16.941a1.088,1.088,0,0,0,0,1.517l6.857,6.968a1.068,1.068,0,0,0,.342.233,1.049,1.049,0,0,0,.808,0,1.081,1.081,0,0,0,.342-.233v-.009L26.592,13.089a1.079,1.079,0,0,0,.23-.348,1.1,1.1,0,0,0,.08-.411,1.082,1.082,0,0,0-.08-.41,1.061,1.061,0,0,0-.23-.348L25.1,10.066a1.034,1.034,0,0,0-1.148-.232,1.041,1.041,0,0,0-.342.232L13.717,20.121,9.1,15.414A1.057,1.057,0,0,0,8.352,15.1Z" transform="translate(105.394 82.162)"/></g><path class="h" d="M5.868,2.018c3.24,0,5.867-.452,5.867-1.009S9.108,0,5.868,0,0,.452,0,1.009,2.627,2.018,5.868,2.018Z" transform="translate(210.933 196.281)"/></svg>