<svg xmlns="http://www.w3.org/2000/svg" xmlns:xlink="http://www.w3.org/1999/xlink" width="124" height="124" viewBox="0 0 124 124"><defs><style>.a{fill:#fff;}.b,.d{fill:#1b2749;}.b{font-size:13px;font-family:SFProText-Regular, SF Pro Text;letter-spacing:-0.006em;}.c{fill:#fa7268;}.e{filter:url(#a);}</style><filter id="a" x="0" y="0" width="124" height="124" filterUnits="userSpaceOnUse"><feOffset dx="1" dy="2" input="SourceAlpha"/><feGaussianBlur stdDeviation="4" result="b"/><feFlood flood-color="#ccc"/><feComposite operator="in" in2="b"/><feComposite in="SourceGraphic"/></filter></defs><g transform="translate(11 10)"><g class="e" transform="matrix(1, 0, 0, 1, -11, -10)"><path class="a" d="M0,11.111A11.111,11.111,0,0,1,11.111,0H88.889A11.111,11.111,0,0,1,100,11.111V88.889A11.111,11.111,0,0,1,88.889,100H11.111A11.111,11.111,0,0,1,0,88.889Z" transform="translate(11 10)"/></g><text class="b" transform="translate(14 79)"><tspan x="0" y="0">Bank name</tspan></text><g transform="translate(14 21)"><path class="c" d="M3.607,0,0,3.607,1.393,5,5,1.394Z" transform="translate(17 9)"/><path class="c" d="M3.606,0,0,3.607,1.393,5,5,1.393Z" transform="translate(9 17)"/><path class="c" d="M1.394,5,5,1.394,3.607,0,0,3.607Z" transform="translate(15 7)"/><path class="c" d="M5,1.394,3.607,0,0,3.606,1.393,5Z" transform="translate(7 15)"/><path class="c" d="M5,3.606,1.393,0,0,1.394,3.606,5Z" transform="translate(7 9)"/><path class="c" d="M3.607,5,5,3.607,1.393,0,0,1.394Z" transform="translate(9 7)"/><path class="c" d="M0,1.394,3.606,5,5,3.607,1.393,0Z" transform="translate(17 15)"/><path class="c" d="M5,3.606,1.393,0,0,1.393,3.606,5Z" transform="translate(15 17)"/><path class="d" d="M11,1.525,9.468,0,5.5,3.949,1.532,0,0,1.525,5.5,7Z" transform="translate(9 22)"/><path class="d" d="M1.526,0,0,1.533,3.949,5.5,0,9.468,1.526,11,7,5.5Z" transform="translate(22 9)"/><path class="d" d="M9.468,7,11,5.474,5.5,0,0,5.474,1.532,7,5.5,3.051Z" transform="translate(9)"/><path class="d" d="M7,1.533,5.475,0,0,5.5,5.475,11,7,9.468,3.051,5.5Z" transform="translate(0 9)"/></g></g></svg>