<svg xmlns="http://www.w3.org/2000/svg" xmlns:xlink="http://www.w3.org/1999/xlink" width="124" height="124" viewBox="0 0 124 124"><defs><style>.a{fill:#fff;}.b,.d{fill:#1b2749;}.b{font-size:13px;font-family:SFProText-Regular, SF Pro Text;letter-spacing:-0.006em;}.c{fill:#fa7268;}.e{fill:#fffbf7;}.f{filter:url(#a);}</style><filter id="a" x="0" y="0" width="124" height="124" filterUnits="userSpaceOnUse"><feOffset dx="1" dy="2" input="SourceAlpha"/><feGaussianBlur stdDeviation="4" result="b"/><feFlood flood-color="#ccc"/><feComposite operator="in" in2="b"/><feComposite in="SourceGraphic"/></filter></defs><g transform="translate(11 10)"><g class="f" transform="matrix(1, 0, 0, 1, -11, -10)"><path class="a" d="M0,11.111A11.111,11.111,0,0,1,11.111,0H88.889A11.111,11.111,0,0,1,100,11.111V88.889A11.111,11.111,0,0,1,88.889,100H11.111A11.111,11.111,0,0,1,0,88.889Z" transform="translate(11 10)"/></g><text class="b" transform="translate(11 79)"><tspan x="0" y="0">Bank name</tspan></text><g transform="translate(12 24)"><path class="c" d="M.163,11.821l0,.014,0,.016-.01.073v0h0a.054.054,0,0,0,0,.014l-.007.043-.005.038v.018h0v.014l0,.011v.01h0l0,.006c-.005.045-.012.092-.017.139s-.01.082-.015.124c0,.016,0,.031,0,.047h0v0h0c-.005.049-.011.1-.016.151s-.008.076-.011.114v0l-.005.036c0,.016,0,.031,0,.045s0,.032,0,.047a.189.189,0,0,1,0,.025l0,.036c0,.015,0,.03,0,.045a.135.135,0,0,1,0,.021c0,.052-.009.106-.011.168h0v0l0,.079c0,.027,0,.055,0,.083v.01h0s0,.006,0,.01v.027h0v.01l0,.094c0,.012,0,.026,0,.04,0,.057,0,.109,0,.164a.213.213,0,0,0,0,.027v.019c0,.045,0,.089,0,.134v.036H0v.046c0,.013,0,.027,0,.041v.058c0,.013,0,.027,0,.04V14.1a9.936,9.936,0,0,0,3.027,7.005,10.248,10.248,0,0,0,8.41,2.814c.19-.023.379-.049.567-.083h0a11.641,11.641,0,0,1-4.447-4.8q-.088-.177-.169-.357a.424.424,0,0,1-.018-.039A11.458,11.458,0,0,1,8.464,7.348a11.683,11.683,0,0,1,5.372-4.174A11.719,11.719,0,0,1,18.054,2.4,11.731,11.731,0,0,1,24,4a0,0,0,0,0,0,0s0,0,0,0c-.015-.016-.033-.032-.05-.049s-.045-.042-.067-.063l-.021-.019h0l0,0,0,0,0,0L23.785,3.8c-.023-.02-.042-.04-.065-.061l0,0,0,0-.005-.005-.011-.01c-.025-.024-.049-.046-.075-.068l0-.005-.033-.029c-.005,0-.01-.01-.016-.014l-.107-.1-.119-.1L23.3,3.369,23.223,3.3l-.055-.045-.029-.026h0l-.022-.017L23.1,3.2c-.033-.027-.063-.053-.094-.077L23,3.12l0,0,0,0,0,0-.071-.057,0,0h0c-.076-.06-.156-.121-.236-.182h0l-.064-.049L22.587,2.8l-.015-.012-.011-.009,0,0h0l0,0h0l0,0L22.5,2.736l-.016-.012-.062-.045-.018-.013-.035-.025-.024-.017h-.005c-.024-.018-.048-.034-.072-.051l-.017-.012-.007,0-.007,0-.176-.121h0l-.08-.054-.02-.013h0l-.119-.077-.008,0,0,0,0,0L21.8,2.253,21.713,2.2l0,0h0l0,0c-.043-.028-.087-.054-.13-.08l0,0h0l-.007,0c-.045-.028-.089-.056-.135-.082l-.072-.043h0l-.031-.019-.041-.024,0,0h0l-.026-.015-.1-.055-.025-.015L21.1,1.829l-.09-.05L21,1.774c-.2-.111-.4-.217-.609-.318l-.014-.008h0l0,0c-.046-.024-.091-.045-.137-.067l-.12-.057h0l-.011,0-.007,0h-.007c-.142-.067-.274-.124-.4-.178h0l0,0h0l0,0-.092-.039-.012-.005-.01,0h0L19.5,1.055l-.059-.024-.027-.011c-.137-.055-.247-.1-.351-.135L19,.863l-.009,0L18.93.836C18.757.774,18.578.713,18.4.657h0l-.01,0-.1-.032L18.176.589,18.113.57,17.889.506H17.88L17.851.5,17.8.484l-.01,0-.014,0c-.148-.04-.3-.075-.45-.111L17.061.308c-.151-.031-.3-.063-.455-.09-.058-.01-.114-.02-.17-.029h-.007l-.17-.027L16.179.15l-.1-.015c-.162-.023-.326-.042-.49-.059-.316-.032-.634-.055-.953-.065C14.461,0,14.284,0,14.106,0c-.3,0-.6.011-.9.03l-.094,0c-.329.023-.658.057-.983.1l-.175.026h-.007L.163,11.818Z" transform="translate(1 1)"/><path class="d" d="M23.839,12.161v-.021c0-.019.007-.041.009-.059v-.021c0-.026.009-.051.011-.077l0-.017,0-.017,0-.025.011-.087.009-.06c.008-.058.013-.112.02-.166V11.6c.005-.051.011-.1.015-.15s.009-.08.012-.118v0l0-.039c0-.027.005-.055.008-.08v-.021c0-.035.007-.071.009-.105v-.014c0-.051.009-.106.011-.167v0q.007-.082.01-.161v-.058c0-.044.005-.089.007-.134,0-.061,0-.119.005-.177v-.033c0-.042,0-.084,0-.127v-.054c0-.036,0-.072,0-.107s0-.076,0-.113V9.9a9.936,9.936,0,0,0-3.026-7A10.174,10.174,0,0,0,13.831,0a10.355,10.355,0,0,0-1.837.163,11.626,11.626,0,0,1,3.541,3.285,11.442,11.442,0,0,1,0,13.2A11.716,11.716,0,0,1,5.946,21.6,11.735,11.735,0,0,1,0,20l0,0,.009.006.008.008a.276.276,0,0,0,.026.025l.028.028c.023.023.045.044.068.065l0,0,0,0c.038.035.082.079.127.118l.007.005.007.006.088.08,0,0,0,0q.077.071.156.138l0,0,0,0,.1.09.007,0,.023.02h0l.1.085.02.017.005.005.081.067L.9,20.8l.01.01c.023.019.05.041.079.063l.01.009.01.006a.664.664,0,0,0,.063.051l.007.005.007,0c.075.061.153.12.232.18.017.013.034.027.051.039l.059.044.031.025.02.013c.03.024.063.046.094.07l.029.021.049.033.005.005.007,0,.071.049.026.018.177.122.005,0,.005,0,.078.053.02.013.065.043.069.045c.035.023.071.047.109.069l.109.07h.09l.16.151.075.044c.048.028.1.058.147.085l.005,0,0,0c.038.023.077.044.117.065.207.116.419.226.63.329.048.024.093.046.14.068l.021.011.131.061c.132.062.268.122.4.177l0,0h0l.1.043.031.013c.045.018.089.035.134.055.109.043.226.088.35.133l0,0h0c.038.014.075.029.114.042l.005,0h.005c.179.065.358.126.53.179l.005,0h.005c.035.012.069.024.1.033h.01c.052.017.105.032.157.048l.043.013.188.053.1.026.008,0c.389.1.785.191,1.174.259H7.4l.162.028h.007l.163.025.008,0h.008c.054.01.111.017.165.025h.005a14.367,14.367,0,0,0,3.948,0l.013,0c.053-.006.1-.013.156-.023h.008l.005,0L23.839,12.183A.032.032,0,0,1,23.839,12.161Z" transform="translate(5 5)"/><path class="e" d="M.614.518h0L.458.492.385.482l.073.01Z" transform="translate(16)"/><path class="e" d="M.686.583h0C.554.521.433.467.316.417h0C.433.467.554.521.686.583Z" transform="translate(19 1)"/><path class="e" d="M.6.53.5.5.4.47.5.5Z" transform="translate(18 1)"/><path class="e" d="M.525.507.482.5l-.008,0L.484.5Z" transform="translate(18 1)"/><path class="e" d="M.5.5l0,0a0,0,0,0,0,0,0l0,0Z" transform="translate(18 1)"/><path class="e" d="M.456.481l.011,0L.552.522h0L.467.486l-.011,0-.008,0h0Z" transform="translate(19 1)"/><path class="e" d="M.384.444.495.5c.043.02.085.04.126.062l0,0h0l0,0L.495.5.384.443h0l-.01,0,.01,0Z" transform="translate(20 1)"/><path class="e" d="M.359.444c.095.035.2.075.323.126L.706.58.682.569C.555.519.454.479.359.444L.3.423.294.42.3.423Z" transform="translate(19 1)"/><path class="e" d="M.5.5v0Z" transform="translate(0 12)"/><path class="e" d="M.5.5v0Z" transform="translate(0 12)"/><path class="e" d="M.494.539C.5.516.5.495.5.472l0-.016L.5.472C.5.493.5.516.494.539v0Z" transform="translate(0 12)"/><path class="e" d="M.506.463.5.5l0,.035L.5.5Z" transform="translate(0 12)"/><path class="e" d="M.5.52C.5.5.5.491.5.476.5.491.5.5.5.52h0v0Z" transform="translate(0 13)"/><path class="e" d="M.5.46C.5.486.5.512.5.538v0C.5.512.5.486.5.46Z" transform="translate(0 13)"/><path class="e" d="M.5.467C.5.481.5.5.5.511A.179.179,0,0,0,.5.534.164.164,0,0,1,.5.511C.5.5.5.481.5.467Z" transform="translate(0 13)"/><path class="e" d="M.5.431a.141.141,0,0,1,0-.02.141.141,0,0,0,0,.02C.5.479.5.53.494.588h0C.5.53.5.479.5.431Z" transform="translate(0 13)"/><path class="e" d="M.456.5.544.5Z" transform="translate(13)"/><path class="e" d="M.5.5h0Z" transform="translate(12)"/><path class="e" d="M.492.482.508.518Z" transform="translate(8 19)"/><path class="e" d="M.061.47C.355.479.648.5.939.53.648.5.355.479.061.47Z" transform="translate(15)"/><path class="e" d="M.376.472.624.527Z" transform="translate(17)"/><path class="e" d="M.22.352C.41.445.6.544.78.649Q.5.492.22.352Z" transform="translate(20 2)"/><path class="e" d="M0,3A12.114,12.114,0,0,1,4.428.417,13.23,13.23,0,0,1,6,0,13.3,13.3,0,0,0,4.427.417,12.105,12.105,0,0,0,0,3Z" transform="translate(10 3)"/><path class="e" d="M4,5A11.25,11.25,0,0,1,.815,1.581,12.646,12.646,0,0,1,0,0,12.646,12.646,0,0,0,.815,1.581,11.226,11.226,0,0,0,4,5Z" transform="translate(9 19)"/><path class="e" d="M.5.46v0Z" transform="translate(0 14)"/><path class="e" d="M2.913,7.112A10.092,10.092,0,0,1,0,.122v0a10.09,10.09,0,0,0,2.912,6.99A9.6,9.6,0,0,0,9.779,10,9.452,9.452,0,0,0,11,9.92,9.647,9.647,0,0,1,9.779,10,9.6,9.6,0,0,1,2.913,7.112Z" transform="translate(1 15)"/><path class="e" d="M.5.5v0Z" transform="translate(0 14)"/><path class="e" d="M.5.542V.525A.2.2,0,0,1,.5.5C.5.449.5.4.5.346.5.334.5.321.5.309.5.321.5.334.5.346.5.4.5.449.5.5A.218.218,0,0,1,.5.525V.542C.5.584.5.625.5.667v0C.5.625.5.584.5.542Z" transform="translate(0 14)"/></g></g></svg>