<svg xmlns="http://www.w3.org/2000/svg" xmlns:xlink="http://www.w3.org/1999/xlink" width="124" height="124" viewBox="0 0 124 124"><defs><style>.a{fill:#fff;}.b,.c{fill:#1b2749;}.b{font-size:13px;font-family:SFProText-Regular, SF Pro Text;letter-spacing:-0.006em;}.d{fill:#f8941e;}.e{fill:#fa7268;}.f{filter:url(#a);}</style><filter id="a" x="0" y="0" width="124" height="124" filterUnits="userSpaceOnUse"><feOffset dx="1" dy="2" input="SourceAlpha"/><feGaussianBlur stdDeviation="4" result="b"/><feFlood flood-color="#ccc"/><feComposite operator="in" in2="b"/><feComposite in="SourceGraphic"/></filter></defs><g transform="translate(11 10)"><g class="f" transform="matrix(1, 0, 0, 1, -11, -10)"><path class="a" d="M0,11.111A11.111,11.111,0,0,1,11.111,0H88.889A11.111,11.111,0,0,1,100,11.111V88.889A11.111,11.111,0,0,1,88.889,100H11.111A11.111,11.111,0,0,1,0,88.889Z" transform="translate(11 10)"/></g><text class="b" transform="translate(16 79)"><tspan x="0" y="0">Bank name</tspan></text><g transform="translate(12 26)"><path class="c" d="M10,14l0,0-.915-1.568L1.829,0H0L8.168,14l0,0H10Z" transform="translate(0 10)"/><path class="c" d="M10,14v0l-.915-1.568-.914-1.567L7.254,9.295,6.34,7.727,5.424,6.16,1.829,0H0L4.51,7.727l.914,1.568.916,1.567.914,1.567L8.169,14l0,0H10Z" transform="translate(7 10)"/><path class="c" d="M9.084,12.429l-.915-1.567L7.254,9.295,6.34,7.727,5.425,6.16,4.511,4.593,3.6,3.025,1.829,0H0L2.681,4.592l1.83,3.135.914,1.568.915,1.567.914,1.567L8.169,14l0,0H10l0,0Z" transform="translate(11 10)"/><path class="d" d="M8,0H6.279L0,11.434.861,13Z" transform="translate(15)"/><path class="c" d="M8.171,14H10l0,0-.916-1.568-.914-1.567L7.254,9.295,1.829,0H0L6.339,10.862l.915,1.567L8.169,14l0,0Z" transform="translate(3 10)"/><path class="e" d="M.886,16,10,0H8.23L0,14.446l.01.017Z" transform="translate(17)"/><path class="e" d="M.9,19,12,0H10.2L0,17.455l.009.016Z" transform="translate(19)"/><path class="e" d="M14,0H12.17L0,20.461l.009.017L.915,22Z" transform="translate(20)"/></g></g></svg>