<svg xmlns="http://www.w3.org/2000/svg" xmlns:xlink="http://www.w3.org/1999/xlink" width="375" height="229" viewBox="0 0 375 229"><defs><style>.a{fill:none;}.b{clip-path:url(#a);}.c{fill:url(#b);}.d{fill:url(#c);}.e{fill:#fdba12;}.f{fill:#f15937;}.g{fill:#b8e986;}.h{fill:url(#d);}.i{fill:#97a3cc;}.j{fill:#eef1f2;}.k{fill:#fbc4ae;}.l{fill:#123a50;}.m{fill:#7c2c1a;}.n{fill:#fff;}.o{fill:#010101;}.p{fill:#fdfeff;}</style><clipPath id="a"><rect class="a" width="375" height="229"/></clipPath><linearGradient id="b" x1="0.404" y1="0.018" x2="0.576" y2="1.203" gradientUnits="objectBoundingBox"><stop offset="0" stop-color="#f49480"/><stop offset="0.155" stop-color="#f49080" stop-opacity="0.475"/><stop offset="0.311" stop-color="#f38c80" stop-opacity="0.608"/><stop offset="0.465" stop-color="#f38c80" stop-opacity="0.525"/><stop offset="0.627" stop-color="#f38c80" stop-opacity="0.365"/><stop offset="0.786" stop-color="#f38c80" stop-opacity="0.204"/><stop offset="0.943" stop-color="#edf8fe" stop-opacity="0.047"/><stop offset="1" stop-color="#fff" stop-opacity="0"/></linearGradient><linearGradient id="c" x1="0.493" y1="0.838" x2="0.56" y2="-0.356" gradientUnits="objectBoundingBox"><stop offset="0" stop-color="#f38c80"/><stop offset="0.132" stop-color="#f38c80" stop-opacity="0.867"/><stop offset="0.266" stop-color="#f38c80" stop-opacity="0.733"/><stop offset="0.4" stop-color="#f38c80" stop-opacity="0.596"/><stop offset="0.536" stop-color="#f38c80" stop-opacity="0.459"/><stop offset="0.672" stop-color="#f38c80" stop-opacity="0.322"/><stop offset="0.808" stop-color="#b2bfe2" stop-opacity="0.184"/><stop offset="0.942" stop-color="#e6e9f5" stop-opacity="0.047"/><stop offset="1" stop-color="#fff" stop-opacity="0"/></linearGradient><linearGradient id="d" x1="0.5" y1="-0.088" x2="0.5" y2="0.672" gradientUnits="objectBoundingBox"><stop offset="0" stop-color="#f38c80"/><stop offset="0.294" stop-color="#f38c80" stop-opacity="0.702"/><stop offset="0.599" stop-color="#f38c80" stop-opacity="0.392"/><stop offset="0.842" stop-color="#f2f5fb" stop-opacity="0.149"/><stop offset="1" stop-color="#fff" stop-opacity="0"/></linearGradient></defs><rect class="a" width="375" height="229"/><g class="b"><g transform="translate(-28)"><path class="a" d="M194.74,43.262c-14.274-3.581-26.383-12.3-41.114-14.015-16.934-1.966-33.751,3.052-50.123,7.171S69.144,43.76,53.278,38.433c-16.313-5.481-27.837-19.254-45-22.459Q3.564,78.027,0,140.138a57.9,57.9,0,0,0,20.224,3.42H366.74c17.209,0,37.745-18.691,38.322-29.5C406.322,90.333,431.626,2.843,393.915.137,345.178-3.358,267.4,61.5,194.74,43.262Z" transform="translate(13.963 94.765)"/><path class="c" d="M176.977,23.071c12.179-3.821,28.318-4.669,43.592-4.593s30.652.929,45.747-.031c18.3-1.165,34.967-4.927,51.1-8.7S349.949,2.076,368.11.574,406.885.4,419.829,5.89c14.322,6.078,15.936,15.535,13.9,23.99s-6.822,17.064-2.189,25.344c4.288,7.661,16.248,14.215,21.994,21.709,10.647,13.885-3.395,30.369-32.713,38.395-16.264,4.453-35.833,6.341-55.168,7.357a717.126,717.126,0,0,1-72.332.132c-20.026-.977-39.919-2.8-60.082-2.7-19.057.093-37.864,1.907-56.915,2.131-37.182.434-146.329.889-170.744-10.755-17.767-8.472,11.812-34.429,20.308-46.015C29.624,60.386,164.556,26.968,176.977,23.071Z" transform="translate(0.49 121.263)"/><path class="d" d="M321.69,64.012c-12.362-9.67-10.992-13.527-8.959-21.989s11.486-16.795-2.838-22.873c-12.942-5.5-33.151-8.693-51.314-7.19A356.718,356.718,0,0,0,206.9,20.367c-16.134,3.772-23.3,6.049-41.042,8.243-33.914,4.191-46.468-8.57-93.022,3.34C52.5,37.152,55.039,53.2,0,54.564c0,0,7.889.54,12.038-.261,4.326-.837,8.548-1.765,12.609-2.812,12.341-3.179,15.1-9.5,21.218-15.037,6.208-5.613,20.068-9.485,32.489-13.382,12.182-3.826,28.318-4.672,43.59-4.6s30.652.932,45.747-.03c18.307-1.168,34.97-4.928,51.1-8.7S251.324,2.076,269.487.575,308.26.394,321.2,5.89c14.326,6.079,15.938,15.533,13.906,23.991s-6.826,17.065-2.189,25.345c4.288,7.659,16.248,14.212,21.994,21.7,3.049,3.984-1.3,14.121-2.09,18.268C354.915,76.931,329.3,69.959,321.69,64.012Z" transform="translate(103.462 118.662)"/><path class="e" d="M10.98,28.624a34.319,34.319,0,0,0,4.159-2.515c1.9.783,4.513.734,8.464-.072C33.391,24.043,40.426,8.78,26.64,3.015,3.967-6.46-2.506,8.782.817,15.975A15.882,15.882,0,0,0,10.685,24.7C11.995,25.6,10.98,28.624,10.98,28.624Z" transform="translate(351.56 25.461)"/><path class="f" d="M23.366,28.622a34.32,34.32,0,0,1-4.159-2.512c-1.9.781-4.514.732-8.462-.072C.955,24.04-6.081,8.781,7.706,3.016c22.67-9.477,29.146,5.767,25.818,12.96A15.873,15.873,0,0,1,23.659,24.7C22.35,25.6,23.366,28.622,23.366,28.622Z" transform="translate(195.316 28.323)"/><path class="g" d="M13.1,29.744c2.518-1.979,1.4-3.751,1.4-3.751a18.738,18.738,0,0,1-8.214-.862c-8.864-3.2-9.347-23.391,5-24.747,8.766-.827,17.26-.623,23.488,3.725,6.007,4.192,4.57,15.864-.27,19.374-4.962,3.61-14.6,2.85-14.6,2.85C17.555,29.727,13.1,29.744,13.1,29.744Z" transform="translate(273.792 0.958)"/><path class="h" d="M97.383,32.167c53.784,0,97.384-7.2,97.384-16.083S151.167,0,97.383,0,0,7.2,0,16.084,43.6,32.167,97.383,32.167Z" transform="translate(193.688 169.933)"/><path class="f" d="M10.514,0S.917,19.068.082,21.842,5.11,44.386,5.11,44.386s3.34-.163,4.176-1.306L7.444,24.619a22.088,22.088,0,0,0,8.2-11.271C17.82,6,10.514,0,10.514,0Z" transform="translate(230.893 54.222)"/><path class="i" d="M3.632,0,24.6.338c.942.037,1.654.6,1.593,1.263l-1.469,14.58c-.061.654-.863,1.16-1.8,1.129L2.012,17.015C.5,16.746-.057,16.35,0,15.675L1.386,1.187C1.447.51,1.883.136,3.632,0Z" transform="translate(228.301 87.035)"/><path class="j" d="M3.316,0,24.332.337C25.282.374,26,.942,25.937,1.6L24.456,16.248c-.061.654-.868,1.16-1.81,1.131l-20.961-.3C.7,17.042-.058,16.466,0,15.789L1.4,1.17C1.461.487,2.321-.037,3.316,0Z" transform="translate(229.16 87.025)"/><path class="k" d="M1.083,0S4.13.438,4.751.56a12.54,12.54,0,0,1,3.218,1.46,9.017,9.017,0,0,1,1.49,2.464A2.374,2.374,0,0,1,8.382,4.7a3.048,3.048,0,0,0-1.692.181c-1.115.3-1.981.759-2.851.364a4.249,4.249,0,0,1-1.9-1.275A5.518,5.518,0,0,0,0,2.629Z" transform="translate(292.844 79.568)"/><path class="k" d="M.331,0A7.554,7.554,0,0,0,0,1.52l1.031.45.786-.543,1.236.093Z" transform="translate(298.174 79.15)"/><path class="k" d="M7.681.282,5.2.535,3.427,0,2.683.535,0,3.729,3.2,5.22H4.83A5.794,5.794,0,0,1,6.4,3.881C6.975,3.7,8.675,3.2,8.675,3.2Z" transform="translate(296.025 80.135)"/><path class="f" d="M0,24.557l1.621,3.966s13.618-4.311,14.326-4.889S27.519,9.57,27.519,9.57,26.691,3,24.331,1.5A8.969,8.969,0,0,0,19.961,0L10.7,17.293Z" transform="translate(301.716 56.067)"/><path class="l" d="M8.194,0V4.161H0s.307-1.505,4.193-2.2L4.764,0Z" transform="translate(336.016 176.371)"/><path class="l" d="M8.19,0V4.161H0s.307-1.505,4.193-2.2L4.764,0Z" transform="translate(320.144 176.371)"/><path class="k" d="M12.229,5.228a10.007,10.007,0,0,0,.847,4.289c.4,1.069,4.137,2.311,4.137,2.311S5.908,24.088,1.544,24.01s1.9-11.561,1.9-11.561S5.28,11.364,5.681,10.2a23.534,23.534,0,0,0,.634-3.8L11.435,0Z" transform="translate(323.138 41.534)"/><path class="k" d="M2.3,0C1.563.469.288,1.451.237,2.176A30.026,30.026,0,0,0,.025,6.263c.107,1.243.158,4.453.37,5.9s.4,3.414.757,3.676a11.738,11.738,0,0,0,4.654,0c.742-.362,4.4-3.935,4.242-7.043,0,0,1.4.648,2.518-2.149.291-.728-2.208-3.519-2.512-4.373C9.306.206,5.008.777,3.845.621A2.389,2.389,0,0,1,2.3,0Z" transform="translate(324.683 34.597)"/><path class="m" d="M1.006,6.471s.425-.985,1.273-.57a9.449,9.449,0,0,0,4.03.57A9.808,9.808,0,0,0,9.015,5.8a6.823,6.823,0,0,0,.371,2.43c.371.521,1.22,1.142,1.272,1.763a8.365,8.365,0,0,1,0,1.243s.847-1.086,1.536-.88.69,1.345,0,1.861a11.457,11.457,0,0,1-1.378.88,8.135,8.135,0,0,0,.158,1.553c.159.674.479,1.814.479,1.814a30.634,30.634,0,0,1,2.7-5.54c1.222-1.6,1.8-4.916-.581-6.156a3.82,3.82,0,0,0-3.34-3.675C6.893.52,3.975,1.347,2.544.88A4.5,4.5,0,0,1,.742,0S-.478,2.382.211,3.935A9.493,9.493,0,0,1,1.006,6.471Z" transform="translate(323.914 30.3)"/><path class="m" d="M.123,4.761c.116.747.264,1.345.8,1.3s.636-.62,1.856-.646,2.069.854,2.864,1.059S8.449,4.92,8.872,3.262,9.561,0,9.561,0l.582.57s-.371,3-.422,4.763a6.388,6.388,0,0,1-3.076,5.331c-2.067,1.032-5.093.567-5.674,0s-.62-2.59-.866-3.47A7.276,7.276,0,0,1,.123,4.761Z" transform="translate(324.786 39.773)"/><path class="l" d="M16.747,1.928a118.861,118.861,0,0,1,3.694,27.436c.048,14.208.2,55.818.2,55.818H14.762s-4.625-40.189-6.827-49.32S0,0,0,0Z" transform="translate(324.239 91.181)"/><path class="l" d="M14.021,16.545s-1.1,21.645-1.321,25.91,0,42.807,0,42.807-5.51.145-5.51,0S2,44.586,1.324,34.082,1.046,11.127.153,9.675,2.565,0,2.565,0l7.794,2.028Z" transform="translate(317.049 91.082)"/><path class="l" d="M0,0V4.161H8.193S7.885,2.656,4,1.96L3.431,0Z" transform="translate(240.859 176.371)"/><path class="l" d="M0,0V4.161H8.191S7.883,2.656,4,1.96L3.431,0Z" transform="translate(258.885 176.371)"/><path class="l" d="M3.9,1.928A118.735,118.735,0,0,0,.2,29.364C.152,43.572,0,85.182,0,85.182H5.879S10.5,44.993,12.71,35.862,20.641,0,20.641,0Z" transform="translate(238.755 91.181)"/><path class="l" d="M0,16.545S1.1,38.19,1.322,42.455,4.908,85.262,4.908,85.262s5.506.145,5.506,0,2.326-40.676,3-51.18-.44-22.955.455-24.407S11.459,0,11.459,0L3.66,2.028Z" transform="translate(252.566 91.082)"/><path class="f" d="M19.387,0l8.264,5.292s-3.415,7.916-3.525,11.061-2.754,24.485-2.754,24.485-7.984,1.322-13.578,0S0,38.811,0,38.811s.219-22.457.659-25.6S2.2,3.768,2.2,3.768L6.578,1.559,9.008,3.39Z" transform="translate(319.613 52.27)"/><path class="n" d="M8.889,0,0,4.022,2.446,6.767,10.375.633Z" transform="translate(328.625 51.636)"/><path class="n" d="M2.432,2.2,0,4.105V.37L1.216,0Z" transform="translate(326.192 53.457)"/><path class="i" d="M0,12.7,2.137,1.189a1.678,1.678,0,0,1,2-1.158L24.755,3.806a1.563,1.563,0,0,1,1.389,1.75l-2.07,11.472c-.569,1.257-1.2,1.672-2.157,1.506L1.417,14.85C.454,14.683-.022,14.239,0,12.7Z" transform="translate(327.228 89.57)"/><path class="j" d="M.03,12.75,2.171,1.2A1.686,1.686,0,0,1,4.177.03l20.708,3.8a1.568,1.568,0,0,1,1.389,1.759L24.192,17.1a1.73,1.73,0,0,1-2.048,1.232L1.461,14.606A1.628,1.628,0,0,1,.03,12.75Z" transform="translate(327.252 89.057)"/><path class="k" d="M4.383.23,3.234,1.891A22.569,22.569,0,0,0,.523,3.775C.411,4.054,0,5.276,0,5.276l.58.275L1.66,4.494a7.99,7.99,0,0,1-.113,1.391c-.116.444-.458,1.275-.458,1.275a14.55,14.55,0,0,0,1.593.667c.571.164,2.729.5,2.729.5s2.05-2.218,2.16-2.942.423-3.374.423-3.374L6.831,0Z" transform="translate(334.56 98.61)"/><path class="f" d="M9.466.018s4.3,20.7,4.3,21.616-6.773,19.412-9,21.444c0,0-1.74.858-3.614-1.779,0,0,1.6-4.418,2.592-7.567S5.5,20.318,5.5,20.318.045,12.926,0,8.541C-.1-.8,9.466.018,9.466.018Z" transform="translate(337.797 57.544)"/><path class="k" d="M11.3,0a4.488,4.488,0,0,1,1.519,2.447s.405,2.044.658,3.595S15.064,8.821,14.9,9.228s-1.087.407-1.087.983-.251,2.218-.251,3.355-1.173,1.3-2.259,1.382-2.509.325-2.762.816a12.648,12.648,0,0,0,0,3.1L0,18.134a15.56,15.56,0,0,0,.813-4.679C.754,11.273.67,8.661.67,8.661s.5-4.739,3.515-6.619A16.69,16.69,0,0,1,11.3,0Z" transform="translate(250.453 33.669)"/><path class="n" d="M6.724,0H0V1.6H6.724Z" transform="translate(331.071 65.544)"/><path class="o" d="M11.913,5.2c.753-.078,2.539,0,3.7,0a1.572,1.572,0,0,0,1.326-2.285A22.3,22.3,0,0,1,15.609.63s-1.268,1.059-3.7,0S4.884-.436,3.3,2.915c0,0-3.1,1.226-3.264,3.593a6.137,6.137,0,0,0,1.507,4.9,19.348,19.348,0,0,1,2.067,4.795,25.389,25.389,0,0,0,2.866.022c1.424-.08,2.764-2.122,3.35-3.1,0,0-2.065-1.553-1.536-3.106s2.621-.814,2.872-.08a9.423,9.423,0,0,0,1.005,1.8l.923.083a27.463,27.463,0,0,0,.164-3.659A6.421,6.421,0,0,0,11.913,5.2Z" transform="translate(247.659 30.916)"/><path class="f" d="M9.545,0s3.412.607,5.085.823a23.973,23.973,0,0,0,4.13,0l6.359,2.614s.86,9.8,1.045,15.031-.491,28.235-.308,29.977c0,0-1.669,3.792-13.542,3.467A38.824,38.824,0,0,1,.438,49.783S.253,29.793.032,25.219.813,8.605.805,5.989L.8,3.375Z" transform="translate(240.611 50.845)"/><path class="f" d="M3.121,0S-1.753,3.26.681,11.771c.859,3.015,12.13,13.253,12.13,13.253l18.606,4.237s1.462-2.426,1.056-4.15L16.88,19.179S5.826,0,3.121,0Z" transform="translate(262.609 54.284)"/><path class="k" d="M.341,1.611,1.422,0H3.866L3.829,2.021l-1.416.255H0Z" transform="translate(236.504 102.384)"/><path class="g" d="M13.562,0H2.3A2.27,2.27,0,0,0,0,2.242V9.951a2.268,2.268,0,0,0,2.3,2.237H6.244l1.683,2.33,1.631-2.33h4a2.267,2.267,0,0,0,2.3-2.237V2.242A2.266,2.266,0,0,0,13.562,0Z" transform="translate(373.001 74.283)"/><path class="p" d="M1.871,4.377H.421A.417.417,0,0,1,0,3.963V.413A.418.418,0,0,1,.421,0h1.45a.42.42,0,0,1,.421.413V3.965A.418.418,0,0,1,1.871,4.377Z" transform="translate(376.567 78.767)"/><path class="p" d="M0,3.445a.76.76,0,0,1,.305-.6A2.919,2.919,0,0,0,1.666.459c.158-.937,1.29-.306,1.351.713.048.831.015,1.524.015,1.524H4.745a.812.812,0,0,1,.824.8v3.22a.815.815,0,0,1-.824.806H1.325a.8.8,0,0,1-.436-.129l-.55-.369A.742.742,0,0,1,0,6.4Z" transform="translate(379.724 75.92)"/><path class="g" d="M8.328,0H1.412A1.392,1.392,0,0,0,0,1.373V6.108A1.393,1.393,0,0,0,1.412,7.487H3.835L4.868,8.916l1-1.429H8.328A1.392,1.392,0,0,0,9.737,6.108V1.373A1.391,1.391,0,0,0,8.328,0Z" transform="translate(280.064 98.316)"/><path class="p" d="M1.149,2.69H.26A.256.256,0,0,1,0,2.437V.257A.26.26,0,0,1,.26,0h.889a.259.259,0,0,1,.259.257V2.437A.256.256,0,0,1,1.149,2.69Z" transform="translate(282.253 101.066)"/><path class="p" d="M0,2.115a.478.478,0,0,1,.185-.37A1.779,1.779,0,0,0,1.024.281c.095-.574.79-.189.828.437.03.509.008.934.008.934H2.914a.5.5,0,0,1,.506.5V4.127a.5.5,0,0,1-.506.494H.813A.487.487,0,0,1,.546,4.54l-.34-.225A.466.466,0,0,1,0,3.93Z" transform="translate(284.192 99.321)"/><path class="e" d="M7.086,13.834a7,7,0,0,0,7.086-6.917A7,7,0,0,0,7.086,0,7,7,0,0,0,0,6.917,7,7,0,0,0,7.086,13.834Z" transform="translate(235.954 6.061)"/><path class="n" d="M4.46,0,5.838,2.727l3.083.436L6.692,5.288l.527,2.995L4.46,6.867,1.7,8.282l.527-2.995L0,3.163l3.082-.436Z" transform="translate(238.58 8.494)"/><path class="e" d="M4.218,8.235A4.169,4.169,0,0,0,8.436,4.118,4.169,4.169,0,0,0,4.218,0,4.169,4.169,0,0,0,0,4.118,4.169,4.169,0,0,0,4.218,8.235Z" transform="translate(303.139 54.286)"/><path class="n" d="M2.655,0l.819,1.623,1.836.261L3.982,3.147l.312,1.785L2.655,4.089l-1.642.843.312-1.785L0,1.884l1.833-.261Z" transform="translate(304.703 55.733)"/><path class="f" d="M9.587,0H1.625A1.606,1.606,0,0,0,0,1.585V7.036A1.607,1.607,0,0,0,1.625,8.622H4.414l1.193,1.645L6.76,8.622H9.587a1.605,1.605,0,0,0,1.625-1.586V1.585A1.6,1.6,0,0,0,9.587,0Z" transform="translate(220.724 114.482)"/><path class="n" d="M5.124.505a1.657,1.657,0,0,0-2.3,0L2.779.464a1.658,1.658,0,0,0-2.3,0,1.561,1.561,0,0,0,0,2.248L2.819,5h0l2.3-2.244A1.564,1.564,0,0,0,5.124.505Z" transform="translate(223.529 116.558)"/><path class="f" d="M11.067,0H1.876A1.854,1.854,0,0,0,0,1.83V8.122A1.852,1.852,0,0,0,1.876,9.95H5.095l1.374,1.9L7.8,9.95h3.264a1.851,1.851,0,0,0,1.875-1.828V1.83A1.853,1.853,0,0,0,11.067,0Z" transform="translate(328.459 7.053)"/><path class="n" d="M5.913.582a1.915,1.915,0,0,0-2.659,0L3.207.537A1.912,1.912,0,0,0,.55.537a1.8,1.8,0,0,0,0,2.592l2.7,2.641L5.913,3.176A1.8,1.8,0,0,0,5.913.582Z" transform="translate(331.7 9.453)"/></g></g></svg>