<svg xmlns="http://www.w3.org/2000/svg" xmlns:xlink="http://www.w3.org/1999/xlink" width="124" height="124" viewBox="0 0 124 124"><defs><style>.a{fill:#fff;}.b,.d{fill:#1b2749;}.c{fill:#fa7268;}.d{font-size:13px;font-family:SFProText-Regular, SF Pro Text;letter-spacing:-0.006em;}.e{filter:url(#a);}</style><filter id="a" x="0" y="0" width="124" height="124" filterUnits="userSpaceOnUse"><feOffset dx="1" dy="2" input="SourceAlpha"/><feGaussianBlur stdDeviation="4" result="b"/><feFlood flood-color="#ccc"/><feComposite operator="in" in2="b"/><feComposite in="SourceGraphic"/></filter></defs><g transform="translate(11 10)"><g class="e" transform="matrix(1, 0, 0, 1, -11, -10)"><path class="a" d="M0,11.111A11.111,11.111,0,0,1,11.111,0H88.889A11.111,11.111,0,0,1,100,11.111V88.889A11.111,11.111,0,0,1,88.889,100H11.111A11.111,11.111,0,0,1,0,88.889Z" transform="translate(11 10)"/></g><path class="b" d="M0,13v0L7.33,0,14,11.831c-.839-.04-1.72-.06-2.618-.06-.416,0-.734,0-1.03.009L7.33,6.416,4.035,12.26C2.636,12.452,1.28,12.7,0,13ZM7.329,1.974,1.9,11.6c.508-.091,1.024-.176,1.534-.252L6.493,5.922l.835-1.48.835,1.48,2.741,4.864h.008l.469,0c.342,0,.642,0,.918.007Z" transform="translate(21 25)"/><path class="c" d="M11.421,17a25.625,25.625,0,0,1-8.273-3.272C1.088,12.341,0,10.758,0,9.148A4.97,4.97,0,0,1,1.948,5.494a16.747,16.747,0,0,1,5.3-2.953,34.061,34.061,0,0,1,3.981-1.2c.21-.05.419-.1.622-.143A51.237,51.237,0,0,1,19.825.112c.28-.018.575-.034.9-.049C21.649.021,22.579,0,23.491,0h.073A54.874,54.874,0,0,1,34.893,1.147c.377.082.75.169,1.107.257l-.038,0c-.125-.015-.249-.029-.375-.042l-.241-.072-.121-.036.114.034.247.074a59.558,59.558,0,0,0-6.458-.346c-1.629,0-3.261.065-4.849.193L28.4,8.131H5.8a4.341,4.341,0,0,0-.775,2.4c0,2.4,2.271,4.7,6.4,6.46Zm9.294-15.39h0A34.3,34.3,0,0,0,9.641,4.928H22.687L20.714,1.607Z" transform="translate(12 38)"/><text class="d" transform="translate(11 79)"><tspan x="0" y="0">Bank name</tspan></text></g></svg>