<svg xmlns="http://www.w3.org/2000/svg" xmlns:xlink="http://www.w3.org/1999/xlink" width="124" height="124" viewBox="0 0 124 124"><defs><style>.a{fill:#fff;}.b{fill:#9846ff;}.c{fill:#775da7;}.d{fill:#ffbc00;}.e{fill:#f7981d;}.f{fill:#ed7c00;}.g{filter:url(#a);}</style><filter id="a" x="0" y="0" width="124" height="124" filterUnits="userSpaceOnUse"><feOffset dx="1" dy="2" input="SourceAlpha"/><feGaussianBlur stdDeviation="4" result="b"/><feFlood flood-color="#ccc"/><feComposite operator="in" in2="b"/><feComposite in="SourceGraphic"/></filter></defs><g transform="translate(11 10)"><g class="g" transform="matrix(1, 0, 0, 1, -11, -10)"><path class="a" d="M0,11.111A11.111,11.111,0,0,1,11.111,0H88.889A11.111,11.111,0,0,1,100,11.111V88.889A11.111,11.111,0,0,1,88.889,100H11.111A11.111,11.111,0,0,1,0,88.889Z" transform="translate(11 10)"/></g><g transform="translate(28 43)"><path class="b" d="M0,11.428,2.032,0H5.206L3.238,11.428Z" transform="translate(15 0)"/><path class="c" d="M0,11.428,2.6,0h2.6L3.238,11.428Z" transform="translate(15 0)"/><path class="b" d="M9.714.508A8.052,8.052,0,0,0,6.794,0c-3.175,0-5.46,1.587-5.46,3.873,0,1.714,1.587,2.6,2.857,3.175S5.841,8,5.841,8.508c0,.762-1.016,1.143-1.9,1.143A6.908,6.908,0,0,1,.889,9.016L.444,8.825,0,11.429a10.308,10.308,0,0,0,3.619.634c3.365,0,5.587-1.587,5.587-4,0-1.333-.825-2.349-2.73-3.174C5.333,4.317,4.635,4,4.635,3.429c0-.508.571-1.016,1.841-1.016a5.824,5.824,0,0,1,2.413.444l.318.127Z" transform="translate(20 0)"/><path class="c" d="M9.714.508A8.052,8.052,0,0,0,6.794,0C3.619,0,1.9,1.587,1.9,3.873A3.32,3.32,0,0,0,4.19,7.048c1.27.571,1.651.952,1.651,1.46,0,.762-1.016,1.143-1.9,1.143A6.908,6.908,0,0,1,.889,9.016L.444,8.825,0,11.429a10.308,10.308,0,0,0,3.619.634c3.365,0,5.587-1.587,5.587-4,0-1.333-.825-2.349-2.73-3.174C5.333,4.317,4.635,4,4.635,3.429c0-.508.571-1.016,1.841-1.016a5.824,5.824,0,0,1,2.413.444l.318.127Z" transform="translate(20 0)"/><path class="b" d="M3.429,11.429H0L4.762.825C5.081.059,5.647,0,6.413,0H8.889l2.666,11.427H8.508l-.381-1.9H4.064l-.635,1.9ZM6.666,3.111c-.186.434-.433,1.114-.444,1.143-.044.114-1.084,2.805-1.27,3.365v.063H7.619c-.123-.615-.736-3.373-.762-3.49Z" transform="translate(29 0)"/><path class="c" d="M3.429,11.429H0L5.524.825C5.843.059,6.409,0,7.175,0H8.889l2.666,11.427H8.508l-.381-1.9H4.064l-.635,1.9ZM6.666,3.111c-.186.434-.433,1.114-.444,1.143C6.181,4.366,5.2,7,4.953,7.619v.063H7.619c-.123-.615-.736-3.373-.762-3.49Z" transform="translate(29 0)"/><path class="b" d="M4.762,7.937,4.444,6.286A9.2,9.2,0,0,0,0,1.27L2.857,11.429H6.286L11.429,0H8Z" transform="translate(4 0)"/><path class="c" d="M4.762,7.937,4.444,6.286A9.2,9.2,0,0,0,0,1.27L2.857,11.429H6.286L11.429,0H8.635Z" transform="translate(4 0)"/><path class="d" d="M0,0,.571.127c4.064.952,6.857,3.365,7.937,6.222L7.365.952C7.175.19,6.6,0,5.9,0Z" transform="translate(0 0)"/><path class="e" d="M0,0C4.063.952,7.429,3.428,8.508,6.286L7.429,1.778A1.55,1.55,0,0,0,5.9.571Z" transform="translate(0)"/><path class="f" d="M0,0C4.063.952,7.429,3.428,8.508,6.286L7.746,3.809A2.239,2.239,0,0,0,6.413,1.968Z" transform="translate(0)"/><path class="c" d="M7.873,6.35,5.714,4.191,4.7,6.6,4.444,5.016A9.2,9.2,0,0,0,0,0L2.857,10.159H6.286Z" transform="translate(4 1)"/><path class="c" d="M3.238,2.793.508,0,0,2.793Z" transform="translate(15 9)"/><path class="c" d="M5.524,0c.254.254.381.444.318.7,0,.762-1.016,1.143-1.9,1.143A6.894,6.894,0,0,1,.889,1.206l-.444-.19L0,3.619a10.283,10.283,0,0,0,3.619.635A6.286,6.286,0,0,0,8.254,2.667Z" transform="translate(20 8)"/><path class="c" d="M0,8.318H2.984l.635-1.9H7.682l.381,1.9h3.048l-1.08-4.635L6.222,0l.191,1.016s.635,2.857.762,3.492H4.508c.254-.635,1.27-3.365,1.27-3.365S6.032.445,6.222,0" transform="translate(29 3)"/></g></g></svg>