<svg xmlns="http://www.w3.org/2000/svg" xmlns:xlink="http://www.w3.org/1999/xlink" width="124" height="124" viewBox="0 0 124 124"><defs><style>.a{fill:#fff;}.b,.d{fill:#1b2749;}.b{font-size:13px;font-family:SFProText-Regular, SF Pro Text;letter-spacing:-0.006em;}.c{fill:#fa7268;}.e{filter:url(#a);}</style><filter id="a" x="0" y="0" width="124" height="124" filterUnits="userSpaceOnUse"><feOffset dx="1" dy="2" input="SourceAlpha"/><feGaussianBlur stdDeviation="4" result="b"/><feFlood flood-color="#ccc"/><feComposite operator="in" in2="b"/><feComposite in="SourceGraphic"/></filter></defs><g transform="translate(11 10)"><g class="e" transform="matrix(1, 0, 0, 1, -11, -10)"><path class="a" d="M0,11.111A11.111,11.111,0,0,1,11.111,0H88.889A11.111,11.111,0,0,1,100,11.111V88.889A11.111,11.111,0,0,1,88.889,100H11.111A11.111,11.111,0,0,1,0,88.889Z" transform="translate(11 10)"/></g><text class="b" transform="translate(11 79)"><tspan x="0" y="0">Bank name</tspan></text><g transform="translate(16 21)"><path class="c" d="M3.619,11A5.147,5.147,0,0,1,0,9.536L3.01,6.6A22.539,22.539,0,0,1,13.12,1.038L17,0,7.239,9.536A5.151,5.151,0,0,1,3.619,11Zm8.7-8.328A20.786,20.786,0,0,0,3.982,7.546L2.128,9.356a3.819,3.819,0,0,0,4.137-.77Z" transform="translate(1)"/><path class="c" d="M0,11l0,0,9.76-9.533A5.145,5.145,0,0,1,13.382,0a5.2,5.2,0,0,1,1.925.366A5.092,5.092,0,0,1,17,1.464L13.991,4.4A22.533,22.533,0,0,1,3.88,9.964L0,11ZM13.382,1.343a3.764,3.764,0,0,0-2.647,1.072L4.68,8.328a20.78,20.78,0,0,0,8.339-4.873l1.854-1.811A3.794,3.794,0,0,0,13.382,1.343Z" transform="translate(11 18)"/><path class="d" d="M11,17l0,0L1.464,7.239A5.213,5.213,0,0,1,1.464,0L4.4,3.01A22.561,22.561,0,0,1,9.964,13.12L11,17ZM1.645,2.129a3.793,3.793,0,0,0,.769,4.136L8.328,12.32A20.782,20.782,0,0,0,3.455,3.982Z" transform="translate(18 1)"/><path class="d" d="M9.536,17h0L6.6,13.99A22.555,22.555,0,0,1,1.037,3.88L0,0,9.536,9.762a5.206,5.206,0,0,1,0,7.237ZM2.673,4.681h0a20.783,20.783,0,0,0,4.874,8.336l1.809,1.851a3.79,3.79,0,0,0-.769-4.136Z" transform="translate(0 10)"/></g></g></svg>