<svg xmlns="http://www.w3.org/2000/svg" width="16" height="16" viewBox="0 0 16 16"><defs><style>.a{fill:rgba(0,0,0,0);}.b{fill:#1b2749;}</style></defs><rect class="a" width="16" height="16"/><path class="b" d="M.395,1.6A.881.881,0,0,0,.755.787C.755.433.514.22,0,0V1.773A1.406,1.406,0,0,0,.395,1.6Z" transform="translate(8.667 8.779)"/><path class="b" d="M8,16a8,8,0,1,1,8-8A8.009,8.009,0,0,1,8,16ZM4.933,10.01,4.48,11.264l.626.226a8.7,8.7,0,0,0,2.227.485v1.358H8.666V11.919a2.909,2.909,0,0,0,1.161-.452,2.2,2.2,0,0,0,.927-1.9c0-1.3-1-1.836-2.088-2.219V5.039A3.943,3.943,0,0,1,9.929,5.4l.584.322.642-1.169-.584-.32a5.651,5.651,0,0,0-1.9-.528V2.666H7.333V3.691a3.194,3.194,0,0,0-1.252.383A1.954,1.954,0,0,0,5.1,5.821C5.1,7.3,6.228,7.905,7.333,8.3v2.339a7.287,7.287,0,0,1-1.773-.4Z"/><path class="b" d="M.329.185A.621.621,0,0,0,0,.783c0,.5.286.78.9,1.047V0A1.722,1.722,0,0,0,.329.185Z" transform="translate(6.432 5.037)"/></svg>