<svg xmlns="http://www.w3.org/2000/svg" width="20" height="20" viewBox="0 0 20 20"><defs><style>.a{fill:rgba(0,0,0,0);}.b{fill:#1b2749;}</style></defs><rect class="a" width="20" height="20"/><g transform="translate(0 0.833)"><path class="b" d="M15.357,19.167A.348.348,0,0,1,15,18.829V8.722a.347.347,0,0,1,.357-.337h4.285A.348.348,0,0,1,20,8.722V18.829a.349.349,0,0,1-.358.337Zm-7.5,0a.37.37,0,0,1-.357-.382V11.162a.37.37,0,0,1,.357-.381h4.285a.37.37,0,0,1,.358.381v7.623a.371.371,0,0,1-.358.382Zm-7.5,0A.356.356,0,0,1,0,18.811V9.938a.356.356,0,0,1,.357-.355H4.642A.357.357,0,0,1,5,9.938v8.873a.357.357,0,0,1-.358.355ZM0,7.187a1.225,1.225,0,0,1,1.25-1.2,1.2,1.2,0,1,1,0,2.4A1.225,1.225,0,0,1,0,7.187Zm12.5-1.2a1.251,1.251,0,1,1,1.249,1.2A1.224,1.224,0,0,1,12.5,5.989ZM2.5,6.6,6.954,2.4l.546.583L3.046,7.187Zm5-3.623L7.918,2.4,12.5,5.4l-.418.586ZM15,4.27l2.637-2.527A1.154,1.154,0,0,1,17.5,1.2a1.251,1.251,0,0,1,2.5,0,1.225,1.225,0,0,1-1.25,1.2,1.288,1.288,0,0,1-.569-.131L15.544,4.792ZM6.25,1.2a1.251,1.251,0,0,1,2.5,0,1.251,1.251,0,0,1-2.5,0Z"/></g></svg>