<svg xmlns="http://www.w3.org/2000/svg" xmlns:xlink="http://www.w3.org/1999/xlink" width="354" height="46.4" viewBox="0 0 354 46.4"><defs><style>.a{fill:none;}.b{clip-path:url(#a);}.c,.e,.f{fill:#1b2749;}.c,.f{font-size:12px;font-family:SFProText-Regular, SF Pro Text;letter-spacing:-0.024em;}.c{opacity:0.502;}.d{fill:rgba(0,0,0,0);}</style><clipPath id="a"><rect class="a" width="354" height="46.4"/></clipPath></defs><g class="b"><g transform="translate(288)"><text class="c" transform="translate(0 25.4)"><tspan x="3.176" y="11">Dashboard</tspan></text><g transform="translate(23)"><rect class="d" width="20" height="20"/><g transform="translate(0 0.833)"><path class="e" d="M15.357,19.167A.348.348,0,0,1,15,18.829V8.722a.347.347,0,0,1,.357-.337h4.285A.348.348,0,0,1,20,8.722V18.829a.349.349,0,0,1-.358.337Zm-7.5,0a.37.37,0,0,1-.357-.382V11.162a.37.37,0,0,1,.357-.381h4.285a.37.37,0,0,1,.358.381v7.623a.371.371,0,0,1-.358.382Zm-7.5,0A.356.356,0,0,1,0,18.811V9.938a.356.356,0,0,1,.357-.355H4.642A.357.357,0,0,1,5,9.938v8.873a.357.357,0,0,1-.358.355ZM0,7.187a1.225,1.225,0,0,1,1.25-1.2,1.2,1.2,0,1,1,0,2.4A1.225,1.225,0,0,1,0,7.187Zm12.5-1.2a1.251,1.251,0,1,1,1.249,1.2A1.224,1.224,0,0,1,12.5,5.989ZM2.5,6.6,6.954,2.4l.546.583L3.046,7.187Zm5-3.623L7.918,2.4,12.5,5.4l-.418.586ZM15,4.27l2.637-2.527A1.154,1.154,0,0,1,17.5,1.2a1.251,1.251,0,0,1,2.5,0,1.225,1.225,0,0,1-1.25,1.2,1.288,1.288,0,0,1-.569-.131L15.544,4.792ZM6.25,1.2a1.251,1.251,0,0,1,2.5,0,1.251,1.251,0,0,1-2.5,0Z"/></g></g></g><text class="f" transform="translate(0 25)"><tspan x="16.6" y="11">Home</tspan></text><g transform="translate(23)"><rect class="d" width="20" height="20" transform="translate(0)"/><g transform="translate(0 0.833)"><path class="e" d="M19.881,4.571,17.381.4a.833.833,0,0,0-.714-.4H3.333a.833.833,0,0,0-.714.4L.119,4.571A.833.833,0,0,0,0,5,3.327,3.327,0,0,0,3.319,8.333h.007a3.312,3.312,0,0,0,2.228-.854,3.313,3.313,0,0,0,4.443,0,3.313,3.313,0,0,0,4.447,0A3.327,3.327,0,0,0,20,5,.833.833,0,0,0,19.881,4.571Z" transform="translate(0)"/><path class="e" d="M14.18.523A5.007,5.007,0,0,1,11.947,0l-.013.006a4.957,4.957,0,0,1-3.8.258A5.083,5.083,0,0,1,7.5,0l-.009,0a4.948,4.948,0,0,1-3.8.257A5.072,5.072,0,0,1,3.054,0,4.992,4.992,0,0,1,.826.523,5.122,5.122,0,0,1,0,.448V8.857a.833.833,0,0,0,.833.833h5v-5H9.167v5h5A.833.833,0,0,0,15,8.857V.445A5.028,5.028,0,0,1,14.18.523Z" transform="translate(2.5 9.477)"/></g></g><g transform="translate(72)"><text class="c" transform="translate(0 25.4)"><tspan x="20.003" y="11">Gifts</tspan></text><g transform="translate(23)"><rect class="d" width="20" height="20"/><g transform="translate(1.334 8.944)"><path class="e" d="M10,10.222V0h7.333V9a1.262,1.262,0,0,1-1.295,1.227Zm-8.706,0A1.262,1.262,0,0,1,0,9V0H7.333V10.222Z"/></g></g></g><g transform="translate(144)"><text class="c" transform="translate(0 25.4)"><tspan x="9.206" y="11">Payment</tspan></text><g transform="translate(23)"><rect class="d" width="20" height="20"/><g transform="translate(1.667)"><path class="e" d="M1.667,17.5a.834.834,0,0,1,.833-.833H15A1.666,1.666,0,0,0,16.667,15V2.5a2.5,2.5,0,0,0-2.5-2.5H8.333V6.667L5.833,5l-2.5,1.667V0H2.5A2.5,2.5,0,0,0,0,2.5v15A2.5,2.5,0,0,0,2.5,20H15.833a.833.833,0,0,0,0-1.667H2.5A.834.834,0,0,1,1.667,17.5Z"/></g></g></g><text class="c" transform="translate(216 25)"><tspan x="8.083" y="11">Link card</tspan></text><g transform="translate(239)"><rect class="d" width="20" height="20" transform="translate(0)"/><g transform="translate(0 0.833)"><path class="e" d="M9.928,0h-4.4Q5.312,0,5.1.02t-.4.055L4.663.083q-.175.034-.346.081T3.976.271Q3.886.3,3.8.339q-.134.054-.266.117L3.479.481q-.106.052-.21.109-.13.071-.257.151Q2.94.787,2.87.835,2.783.893,2.7.955q-.155.113-.3.238c-.042.036-.084.072-.125.109l-.106.1-.089.086q-.1.1-.205.212-.057.061-.112.125c-.046.053-.092.106-.136.16l0,0c-.049.059-.1.12-.143.182s-.079.105-.117.159-.087.125-.129.189q-.094.142-.181.289-.116.2-.221.4a7.391,7.391,0,0,0-.388.911l-.022.066a7.756,7.756,0,0,0-.225.8A8.146,8.146,0,0,0,0,6.59c0,.058,0,.116,0,.174s0,.116,0,.174A8.127,8.127,0,0,0,.239,8.734q.078.314.18.615l.022.065a7.394,7.394,0,0,0,.388.911q.1.206.221.4.087.148.181.289c.042.064.085.127.129.189s.078.107.117.159.065.085.1.126l.094.115.089.1q.055.063.112.125.1.109.205.212l.089.086.106.1q.062.056.125.109.148.125.3.238c.056.041.113.081.171.12s.095.063.143.093c.084.053.17.1.257.151q.1.057.21.109l.053.025q.131.063.266.117.089.036.179.068.168.06.341.108t.346.081l.042.008q.2.036.4.055t.425.02a1.644,1.644,0,0,0,1.454-1.78,1.644,1.644,0,0,0-1.454-1.78,2.237,2.237,0,0,1-1.245-.386l-.031-.022a2.766,2.766,0,0,1-.575-.532,3.168,3.168,0,0,1-.325-.485,3.8,3.8,0,0,1,0-3.56A2.534,2.534,0,0,1,5.526,3.56h4.4a2.959,2.959,0,0,1,2.618,3.2,3.6,3.6,0,0,1-.725,2.21,9.8,9.8,0,0,1,.4,2.774,10.033,10.033,0,0,1-.073,1.213,6.96,6.96,0,0,0,3.312-6.2C15.455,3.035,12.975,0,9.928,0Z" transform="translate(4.545)"/><path class="e" d="M15.216,4.8q-.078-.314-.18-.614c-.025-.073-.05-.145-.077-.216s-.052-.136-.08-.2-.056-.136-.086-.2q-.072-.163-.151-.32-.125-.249-.266-.484l-.064-.1a6.5,6.5,0,0,0-.657-.876l-.036-.039a5.935,5.935,0,0,0-.436-.434q-.062-.055-.125-.109a5.422,5.422,0,0,0-.616-.452L12.305.658q-.162-.095-.33-.177L11.923.456q-.142-.067-.287-.125L11.5.279Q11.311.21,11.116.158q-.15-.04-.3-.07L10.735.072c-.126-.023-.253-.04-.382-.052S10.071,0,9.928,0A1.644,1.644,0,0,0,8.474,1.78,1.644,1.644,0,0,0,9.928,3.56a2.164,2.164,0,0,1,.574.079,2.253,2.253,0,0,1,.283.1l.088.04a2.684,2.684,0,0,1,.987.828l.017.023q.066.09.126.187l.051.084c.017.028.033.056.049.085a3.709,3.709,0,0,1,.442,1.78,2.959,2.959,0,0,1-2.618,3.2h-4.4a2.959,2.959,0,0,1-2.618-3.2,3.6,3.6,0,0,1,.725-2.21,9.806,9.806,0,0,1-.4-2.774A10.032,10.032,0,0,1,3.312.568,6.96,6.96,0,0,0,0,6.765c0,3.73,2.479,6.765,5.526,6.765h4.4q.214,0,.425-.02c.129-.012.256-.03.382-.053l.079-.015c.1-.02.2-.044.3-.07q.194-.052.383-.121l.136-.052q.145-.058.287-.125l.053-.025q.168-.082.33-.177c.046-.027.092-.054.137-.083a5.423,5.423,0,0,0,.616-.452q.063-.053.125-.109a5.965,5.965,0,0,0,.437-.434l.036-.039q.089-.1.174-.2l0-.005a6.59,6.59,0,0,0,.478-.667l.064-.1q.141-.234.266-.484.079-.157.151-.32c.03-.067.058-.135.086-.2s.054-.135.08-.2.052-.143.077-.216a7.811,7.811,0,0,0,.225-.8,8.157,8.157,0,0,0,.193-1.607q0-.087,0-.174c0-.058,0-.116,0-.174a8.121,8.121,0,0,0-.237-1.8Z" transform="translate(0 5.637)"/></g></g></g></svg>