<svg xmlns="http://www.w3.org/2000/svg" xmlns:xlink="http://www.w3.org/1999/xlink" width="160" height="160" viewBox="0 0 160 160"><defs><style>.a{fill:rgba(255,255,255,0.95);}.b{fill:#7f8592;font-size:11px;font-family:SFProText-Regular, SF Pro Text;letter-spacing:0.006em;}.c{fill:#1b2749;}.d{filter:url(#a);}</style><filter id="a" x="0" y="0" width="160" height="160" filterUnits="userSpaceOnUse"><feOffset dy="10" input="SourceAlpha"/><feGaussianBlur stdDeviation="10" result="b"/><feFlood flood-opacity="0.102"/><feComposite operator="in" in2="b"/><feComposite in="SourceGraphic"/></filter></defs><g transform="translate(30 20)"><g class="d" transform="matrix(1, 0, 0, 1, -30, -20)"><rect class="a" width="100" height="100" rx="8" transform="translate(30 20)"/></g><text class="b" transform="translate(50.5 81)"><tspan x="-25.358" y="0">Exchange</tspan></text><g transform="translate(32 21)"><path class="c" d="M19.776,38H1.913A1.909,1.909,0,0,1,0,36.1V1.9A1.909,1.909,0,0,1,1.913,0H19.776A1.909,1.909,0,0,1,21.69,1.9V8.233H36.362A.637.637,0,0,1,37,8.867V26.6a.636.636,0,0,1-.638.633H35.087V28.5a.636.636,0,0,1-.638.633H21.69V36.1A1.909,1.909,0,0,1,19.776,38Zm-18.5-5.066V36.1a.636.636,0,0,0,.637.634H19.776a.637.637,0,0,0,.638-.634V32.934Zm0-28.5V31.667H20.414V4.433h-5.4L13.928,6.052a.639.639,0,0,1-.531.282h-5.1a.641.641,0,0,1-.533-.282L6.676,4.433Zm20.414,22.8v.634H33.81v-.634Zm0-1.9v.634H35.724V9.5H21.69v.633h8.931a.637.637,0,0,1,.638.634,3.079,3.079,0,0,0,.466,1.647,3.184,3.184,0,0,0,2.708,1.519h.015a.637.637,0,0,1,.638.634V20.9a.637.637,0,0,1-.638.634,3.186,3.186,0,0,0-3.19,3.166.637.637,0,0,1-.638.634Zm0-13.933V24.067h8.338a4.4,4.4,0,0,1,1.264-2.5,4.455,4.455,0,0,1,2.518-1.255V15.156A4.462,4.462,0,0,1,31.293,13.9a4.4,4.4,0,0,1-1.265-2.5ZM1.913,1.266a.636.636,0,0,0-.637.634V3.167H7.017a.638.638,0,0,1,.533.282L8.635,5.067h4.421l1.086-1.618a.636.636,0,0,1,.531-.282h5.741V1.9a.637.637,0,0,0-.638-.634Z"/><path class="c" d="M3,1.5A1.5,1.5,0,1,1,1.5,0,1.5,1.5,0,0,1,3,1.5Z" transform="translate(9 33)"/><path class="c" d="M0,.2H4V1.8H0Z" transform="translate(8 2)"/><path class="c" d="M1.333,1.333H2V0H.667A.667.667,0,0,0,0,.667V2H1.333Z" transform="translate(1 7)"/><path class="c" d="M1.333,0H0V1.333H.667V2H2V.667A.667.667,0,0,0,1.333,0Z" transform="translate(17 7)"/><path class="c" d="M1.333,0H0V1.333A.667.667,0,0,0,.667,2H2V.667H1.333Z" transform="translate(1 29)"/><path class="c" d="M.667.667H0V2H1.333A.667.667,0,0,0,2,1.333V0H.667Z" transform="translate(17 29)"/><path class="c" d="M7.5,15A7.5,7.5,0,1,1,15,7.5,7.509,7.509,0,0,1,7.5,15Zm0-13.75A6.25,6.25,0,1,0,13.75,7.5,6.257,6.257,0,0,0,7.5,1.25Z" transform="translate(3 10)"/><path class="c" d="M2.9.9,2.026,0,.18,1.912a.654.654,0,0,0-.133.695A.616.616,0,0,0,.615,3H8V1.725H2.1Z" transform="translate(6 14)"/><path class="c" d="M7.385,0H0V1.275H5.9L5.1,2.1l.87.9L7.82,1.088A.654.654,0,0,0,7.953.393.616.616,0,0,0,7.385,0Z" transform="translate(6 18)"/><path class="c" d="M3.125,8H1.875V7.333A1.943,1.943,0,0,1,0,5.333H1.25a.694.694,0,0,0,.2.486A.6.6,0,0,0,1.875,6V4.667A1.943,1.943,0,0,1,0,2.667a1.942,1.942,0,0,1,1.875-2V0h1.25V.667A1.943,1.943,0,0,1,5,2.667H3.75a.7.7,0,0,0-.2-.486A.6.6,0,0,0,3.125,2V3.334A1.943,1.943,0,0,1,5,5.333a1.943,1.943,0,0,1-1.876,2V8Zm0-3.334V6a.61.61,0,0,0,.443-.2.685.685,0,0,0,.183-.471A.648.648,0,0,0,3.125,4.667ZM1.875,2a.648.648,0,0,0-.625.667.648.648,0,0,0,.625.667Z" transform="translate(22 14)"/></g></g></svg>