<svg xmlns="http://www.w3.org/2000/svg" width="20" height="20" viewBox="0 0 20 20"><defs><style>.a{fill:rgba(0,0,0,0);}.b{fill:#1b2749;}</style></defs><g transform="translate(0)"><rect class="a" width="20" height="20" transform="translate(0)"/><g transform="translate(0 0.833)"><path class="b" d="M19.881,4.571,17.381.4a.833.833,0,0,0-.714-.4H3.333a.833.833,0,0,0-.714.4L.119,4.571A.833.833,0,0,0,0,5,3.327,3.327,0,0,0,3.319,8.333h.007a3.312,3.312,0,0,0,2.228-.854,3.313,3.313,0,0,0,4.443,0,3.313,3.313,0,0,0,4.447,0A3.327,3.327,0,0,0,20,5,.833.833,0,0,0,19.881,4.571Z" transform="translate(0)"/><path class="b" d="M14.18.523A5.007,5.007,0,0,1,11.947,0l-.013.006a4.957,4.957,0,0,1-3.8.258A5.083,5.083,0,0,1,7.5,0l-.009,0a4.948,4.948,0,0,1-3.8.257A5.072,5.072,0,0,1,3.054,0,4.992,4.992,0,0,1,.826.523,5.122,5.122,0,0,1,0,.448V8.857a.833.833,0,0,0,.833.833h5v-5H9.167v5h5A.833.833,0,0,0,15,8.857V.445A5.028,5.028,0,0,1,14.18.523Z" transform="translate(2.5 9.477)"/></g></g></svg>