<svg xmlns="http://www.w3.org/2000/svg" xmlns:xlink="http://www.w3.org/1999/xlink" width="160" height="160" viewBox="0 0 160 160"><defs><style>.a{fill:rgba(255,255,255,0.95);}.b{fill:#7f8592;font-size:11px;font-family:SFProText-Regular, SF Pro Text;letter-spacing:0.006em;}.c{fill:#1b2749;}.d{filter:url(#a);}</style><filter id="a" x="0" y="0" width="160" height="160" filterUnits="userSpaceOnUse"><feOffset dy="10" input="SourceAlpha"/><feGaussianBlur stdDeviation="10" result="b"/><feFlood flood-opacity="0.102"/><feComposite operator="in" in2="b"/><feComposite in="SourceGraphic"/></filter></defs><g transform="translate(30 20)"><g class="d" transform="matrix(1, 0, 0, 1, -30, -20)"><rect class="a" width="100" height="100" rx="8" transform="translate(30 20)"/></g><text class="b" transform="translate(50.5 81)"><tspan x="-24.786" y="0">Recharge</tspan></text><path class="c" d="M2.087,1.46l.79-.7L2.012,0,.179,1.619a.5.5,0,0,0,0,.763L2.012,4l.864-.763-.79-.7H11V1.46Z" transform="translate(55 36)"/><path class="c" d="M3.8.751,2.862,0,.2,2.124a.459.459,0,0,0,0,.751L2.862,5,3.8,4.249,2.277,3.031H8V1.969H2.277Z" transform="translate(58 45)"/><path class="c" d="M2.862,5,3.8,4.249,2.276,3.031H8V1.969H2.276L3.8.751,2.862,0,.2,2.124a.459.459,0,0,0,0,.751Z" transform="translate(58 27)"/><path class="c" d="M4.375.667H3.125V0H1.875V.667H.625A.647.647,0,0,0,0,1.333V4a.647.647,0,0,0,.625.667H3.75V6H1.25V5.361H0V6.667a.647.647,0,0,0,.625.667H1.888V8h1.25V7.333H4.375A.647.647,0,0,0,5,6.667V4a.647.647,0,0,0-.625-.667H1.25V2h2.5v.681H5V1.333A.647.647,0,0,0,4.375.667Z" transform="translate(42 37)"/><path class="c" d="M7,16c-4.318,0-7-2.122-7-5.539A8.527,8.527,0,0,1,1.256,6.176,8.061,8.061,0,0,1,4.511,3.061L3.84.784A.6.6,0,0,1,4.012.171.641.641,0,0,1,4.451,0a.662.662,0,0,1,.2.031L6.4.595,9.418.013A.682.682,0,0,1,9.545,0a.653.653,0,0,1,.468.2.606.606,0,0,1,.144.589L9.486,3.063a8.055,8.055,0,0,1,3.258,3.113A8.519,8.519,0,0,1,14,10.462C14,13.878,11.318,16,7,16ZM7,3.693c-3.173,0-5.728,3.7-5.728,6.769,0,4,4.384,4.307,5.728,4.307s5.727-.311,5.727-4.307C12.727,7.4,10.172,3.693,7,3.693ZM7,2.461a5.163,5.163,0,0,1,1.292.164l.356-1.209-2.163.418a.63.63,0,0,1-.325-.02L5.4,1.568l.312,1.057A5.176,5.176,0,0,1,7,2.461Z" transform="translate(38 32)"/><path class="c" d="M.1.1H.9V.9H.1Z" transform="translate(37 48)"/><path class="c" d="M.1.1H.9V.9H.1Z" transform="translate(37 31)"/><path class="c" d="M.1.1H.9V.9H.1Z" transform="translate(51 48)"/><path class="c" d="M.1.1H.9V.9H.1Z" transform="translate(51 31)"/><path class="c" d="M20.842,38H3.158A3.2,3.2,0,0,1,0,34.834V3.167A3.186,3.186,0,0,1,3.158,0H20.842A3.187,3.187,0,0,1,24,3.167V13.933H22.737V5.067H15.548l-.457.916a.627.627,0,0,1-.565.35H9.473a.627.627,0,0,1-.565-.35l-.456-.916H1.264V32.3H22.737V21.533H24v13.3A3.206,3.206,0,0,1,20.842,38ZM1.264,33.566v1.267a1.946,1.946,0,0,0,1.895,1.9H20.842a1.946,1.946,0,0,0,1.895-1.9V33.566Zm1.895-32.3a1.947,1.947,0,0,0-1.895,1.9V3.8H8.843a.628.628,0,0,1,.568.351l.454.916h4.271l.457-.916a.628.628,0,0,1,.565-.351h7.579V3.167a1.947,1.947,0,0,0-1.895-1.9Z" transform="translate(33 21)"/><path class="c" d="M.1.1H.9V.9H.1Z" transform="translate(37 24)"/><path class="c" d="M0,0V1.5A.5.5,0,0,0,.5,2H2V1H1V0Z" transform="translate(34 50)"/><path class="c" d="M2,0H.5A.5.5,0,0,0,0,.5V2H1V1H2Z" transform="translate(34 26)"/><path class="c" d="M1,1H0V2H1.5A.5.5,0,0,0,2,1.5V0H1Z" transform="translate(53 50)"/><path class="c" d="M2,.5A.5.5,0,0,0,1.5,0H0V1H1V2H2Z" transform="translate(53 26)"/></g></svg>